<svg width="42" height="30" viewBox="0 0 42 30" fill="none" xmlns="http://www.w3.org/2000/svg">
<path d="M18.2656 29.0137C18.2656 29.0137 17.8424 28.9079 16.9961 28.6963C16.1497 28.4847 15.7266 27.7604 15.7266 26.5234C15.7266 25.8724 15.9056 24.9935 16.2637 23.8867C16.6217 22.7799 17.2809 21.6813 18.2412 20.5908C19.2015 19.5003 20.4954 18.5482 22.123 17.7344C23.7507 16.9206 25.834 16.5137 28.373 16.5137C30.8796 16.5137 32.9629 16.9206 34.623 17.7344C36.2507 18.5482 37.5365 19.5003 38.4805 20.5908C39.4245 21.6813 40.0755 22.7799 40.4336 23.8867C40.8242 24.9935 41.0195 25.8724 41.0195 26.5234C41.0195 27.7604 40.5964 28.4847 39.75 28.6963C38.9036 28.9079 38.4805 29.0137 38.4805 29.0137H18.2656ZM14.7988 29.0137C14.6035 28.623 14.4001 28.3138 14.1885 28.0859C13.9769 27.8581 13.8711 27.3372 13.8711 26.5234C13.8711 25.0586 14.3512 23.4473 15.3115 21.6895C16.2718 19.9316 17.5495 18.4505 19.1445 17.2461C18.3633 17.0182 17.46 16.8392 16.4346 16.709C15.4092 16.5788 14.4733 16.5137 13.627 16.5137C11.1204 16.5137 9.03711 16.9206 7.37695 17.7344C5.74935 18.5482 4.46354 19.5003 3.51953 20.5908C2.57552 21.6813 1.92448 22.7799 1.56641 23.8867C1.17578 24.9935 0.980469 25.8724 0.980469 26.5234C0.980469 27.7604 1.40365 28.4847 2.25 28.6963C3.09635 28.9079 3.51953 29.0137 3.51953 29.0137H14.7988ZM33.7441 12.8027C33.028 13.4863 32.2061 14.0234 31.2783 14.4141C30.3506 14.8047 29.3822 15 28.373 15C27.3639 15 26.3955 14.8047 25.4678 14.4141C24.54 14.0234 23.7181 13.4863 23.002 12.8027C22.2858 12.0866 21.7324 11.2728 21.3418 10.3613C20.9512 9.44987 20.7559 8.48958 20.7559 7.48047C20.7559 6.50391 20.9512 5.55176 21.3418 4.62402C21.7324 3.69629 22.2858 2.89062 23.002 2.20703C23.7181 1.49088 24.54 0.945639 25.4678 0.571289C26.3955 0.196939 27.3639 0.00976562 28.373 0.00976562C29.3822 0.00976562 30.3506 0.196939 31.2783 0.571289C32.2061 0.945639 33.028 1.49088 33.7441 2.20703C34.4277 2.89062 34.9648 3.69629 35.3555 4.62402C35.7461 5.55176 35.9414 6.50391 35.9414 7.48047C35.9414 8.48958 35.7461 9.44987 35.3555 10.3613C34.9648 11.2728 34.4277 12.0866 33.7441 12.8027ZM17.2891 13.1445C16.7031 13.7305 16.0195 14.1862 15.2383 14.5117C14.457 14.8372 13.6595 15 12.8457 15C11.9993 15 11.1855 14.8372 10.4043 14.5117C9.62305 14.1862 8.93945 13.7305 8.35352 13.1445C7.76758 12.5586 7.31185 11.8831 6.98633 11.1182C6.66081 10.3532 6.49805 9.5638 6.49805 8.75C6.49805 7.9362 6.66081 7.14681 6.98633 6.38184C7.31185 5.61686 7.76758 4.94141 8.35352 4.35547C8.93945 3.76953 9.62305 3.3138 10.4043 2.98828C11.1855 2.66276 11.9993 2.5 12.8457 2.5C13.6595 2.5 14.457 2.66276 15.2383 2.98828C16.0195 3.3138 16.7031 3.76953 17.2891 4.35547C17.875 4.94141 18.3307 5.61686 18.6562 6.38184C18.9818 7.14681 19.1445 7.9362 19.1445 8.75C19.1445 9.5638 18.9818 10.3532 18.6562 11.1182C18.3307 11.8831 17.875 12.5586 17.2891 13.1445Z" fill="white"/>
</svg>
