<svg width="32" height="42" viewBox="0 0 32 42" fill="none" xmlns="http://www.w3.org/2000/svg">
<path d="M8.72852 33.0117C8.69596 32.4909 8.639 31.9782 8.55762 31.4736C8.47624 30.9691 8.30534 30.5052 8.04492 30.082C7.55664 29.1706 6.93001 28.3568 6.16504 27.6406C5.40006 26.9245 4.80599 26.306 4.38281 25.7852C3.47135 24.6458 2.73079 23.417 2.16113 22.0986C1.59147 20.7803 1.22526 19.4049 1.0625 17.9727C0.89974 16.5404 0.94043 15.1162 1.18457 13.7002C1.42871 12.2842 1.8763 10.9251 2.52734 9.62305C3.14583 8.35352 3.94336 7.18164 4.91992 6.10742C5.89648 5.0332 7.00326 4.10547 8.24023 3.32422C9.47721 2.57552 10.7956 1.99772 12.1953 1.59082C13.5951 1.18392 15.0273 0.980469 16.4922 0.980469C17.957 0.980469 19.3893 1.18392 20.7891 1.59082C22.1888 1.99772 23.5072 2.57552 24.7441 3.32422C25.9811 4.10547 27.0879 5.0332 28.0645 6.10742C29.041 7.18164 29.8385 8.35352 30.457 9.62305C31.0755 10.9251 31.5068 12.2842 31.751 13.7002C31.9951 15.1162 32.0358 16.5404 31.873 17.9727C31.7103 19.4049 31.3522 20.7803 30.7988 22.0986C30.2454 23.417 29.513 24.6458 28.6016 25.7852C28.1458 26.306 27.5436 26.9245 26.7949 27.6406C26.0462 28.3568 25.4115 29.1706 24.8906 30.082C24.6628 30.5052 24.5081 30.9691 24.4268 31.4736C24.3454 31.9782 24.2721 32.4909 24.207 33.0117H8.72852ZM24.207 35.3066V37.2109C24.207 37.6992 24.1094 38.1794 23.9141 38.6514C23.7188 39.1234 23.4421 39.5384 23.084 39.8965C22.7259 40.2546 22.3109 40.5312 21.8389 40.7266C21.3669 40.9219 20.8704 41.0195 20.3496 41.0195H12.5859C12.0977 41.0195 11.6094 40.9219 11.1211 40.7266C10.6328 40.5312 10.2096 40.2546 9.85156 39.8965C9.49349 39.5384 9.2168 39.1234 9.02148 38.6514C8.82617 38.1794 8.72852 37.6992 8.72852 37.2109V35.3066H24.207ZM18.9824 15.2871C18.8197 15.222 18.6813 15.1162 18.5674 14.9697C18.4535 14.8232 18.3965 14.6686 18.3965 14.5059V10.2578C18.3965 9.83463 18.2012 9.56608 17.8105 9.45215C17.4199 9.33822 17.1107 9.44401 16.8828 9.76953L11.707 17.6309C11.5443 17.8913 11.5361 18.168 11.6826 18.4609C11.8291 18.7539 12.0651 18.9004 12.3906 18.9004H13.709C13.9368 18.9004 14.1322 18.9818 14.2949 19.1445C14.4577 19.3073 14.5391 19.5026 14.5391 19.7305V23.9785C14.5391 24.4017 14.7344 24.6702 15.125 24.7842C15.5156 24.8981 15.8249 24.7923 16.0527 24.4668L21.4238 17.1914C21.5866 16.9635 21.6191 16.7113 21.5215 16.4346C21.4238 16.1579 21.2448 15.987 20.9844 15.9219L18.9824 15.2871Z" fill="white"/>
</svg>
