<svg width="42" height="34" viewBox="0 0 42 34" fill="none" xmlns="http://www.w3.org/2000/svg">
<path d="M35.8926 4.69531C35.6973 4.01172 35.3962 3.37695 34.9893 2.79102C34.5824 2.20508 34.0859 1.70052 33.5 1.27734C32.9466 0.854168 32.3363 0.536785 31.6689 0.325195C31.0016 0.113605 30.3099 0.0078125 29.5938 0.0078125C28.7474 0.0078125 27.9417 0.154297 27.1768 0.447266C26.4118 0.740234 25.7363 1.16341 25.1504 1.7168C24.5319 2.27018 24.0436 2.92122 23.6855 3.66992C23.3275 4.41862 23.0996 5.19987 23.002 6.01367H18.998C18.9004 5.19987 18.6725 4.41862 18.3145 3.66992C17.9564 2.92122 17.4681 2.27018 16.8496 1.7168C16.2311 1.16341 15.5394 0.740234 14.7744 0.447266C14.0094 0.154297 13.2201 0.0078125 12.4062 0.0078125C11.6901 0.0078125 10.9984 0.113605 10.3311 0.325195C9.66374 0.536785 9.03711 0.854168 8.45117 1.27734C7.89779 1.70052 7.41764 2.20508 7.01074 2.79102C6.60384 3.37695 6.30273 4.01172 6.10742 4.69531L1.07812 21.4434C1.04557 21.541 1.02116 21.6305 1.00488 21.7119C0.988607 21.7933 0.980469 21.8828 0.980469 21.9805V23.9824C0.980469 25.3171 1.24089 26.5947 1.76172 27.8154C2.28255 29.0361 2.9987 30.1185 3.91016 31.0625C4.85417 32.0065 5.94466 32.7308 7.18164 33.2354C8.41862 33.7399 9.68815 33.9922 10.9902 33.9922C11.9668 33.9922 12.9189 33.8538 13.8467 33.5771C14.7744 33.3005 15.6452 32.9017 16.459 32.3809C17.2728 31.8275 17.9971 31.1846 18.6318 30.4521C19.2666 29.7197 19.7793 28.8978 20.1699 27.9863H21.8301C22.2207 28.8978 22.7334 29.7197 23.3682 30.4521C24.0029 31.1846 24.7272 31.8275 25.541 32.3809C26.3548 32.9017 27.2256 33.3005 28.1533 33.5771C29.0811 33.8538 30.0332 33.9922 31.0098 33.9922C32.3118 33.9922 33.5814 33.7399 34.8184 33.2354C36.0553 32.7308 37.1458 32.0065 38.0898 31.0625C39.0013 30.1185 39.7174 29.0361 40.2383 27.8154C40.7591 26.5947 41.0195 25.3171 41.0195 23.9824V21.9805C41.0195 21.8828 41.0114 21.7933 40.9951 21.7119C40.9788 21.6305 40.9544 21.541 40.9219 21.4434L35.8926 4.69531ZM10.9902 29.9883C10.209 29.9883 9.45215 29.8337 8.71973 29.5244C7.9873 29.2152 7.32812 28.7839 6.74219 28.2305C6.1888 27.6771 5.75749 27.0342 5.44824 26.3018C5.139 25.5693 4.98438 24.7962 4.98438 23.9824C4.98438 23.9173 4.99251 23.8522 5.00879 23.7871C5.02506 23.722 5.0332 23.6406 5.0332 23.543C5.09831 22.7943 5.29362 22.0781 5.61914 21.3945C5.94466 20.7109 6.38411 20.1087 6.9375 19.5879C7.49089 19.0996 8.11751 18.7171 8.81738 18.4404C9.51725 18.1637 10.2415 18.0091 10.9902 17.9766C11.804 17.9766 12.5771 18.1312 13.3096 18.4404C14.042 18.7497 14.6849 19.181 15.2383 19.7344C15.7917 20.3203 16.223 20.9795 16.5322 21.7119C16.8415 22.4443 16.9961 23.2012 16.9961 23.9824V24.0312C16.9961 24.8125 16.8415 25.5693 16.5322 26.3018C16.223 27.0342 15.7917 27.6771 15.2383 28.2305C14.6849 28.8164 14.042 29.2559 13.3096 29.5488C12.5771 29.8418 11.804 29.9883 10.9902 29.9883ZM31.0098 29.9883C30.196 29.9883 29.4229 29.8418 28.6904 29.5488C27.958 29.2559 27.3151 28.8164 26.7617 28.2305C26.2083 27.6771 25.777 27.0342 25.4678 26.3018C25.1585 25.5693 25.0039 24.8125 25.0039 24.0312V23.9824C25.0039 23.5918 25.0446 23.2093 25.126 22.835C25.2074 22.4606 25.3132 22.0781 25.4434 21.6875C25.6061 21.3294 25.7933 20.9876 26.0049 20.6621C26.2165 20.3366 26.4688 20.0273 26.7617 19.7344C27.3151 19.181 27.958 18.7497 28.6904 18.4404C29.4229 18.1312 30.196 17.9766 31.0098 17.9766C31.791 17.9766 32.5479 18.1312 33.2803 18.4404C34.0127 18.7497 34.6719 19.181 35.2578 19.7344C35.8112 20.3203 36.2425 20.9795 36.5518 21.7119C36.861 22.4443 37.0156 23.2012 37.0156 23.9824C37.0156 24.7962 36.861 25.5693 36.5518 26.3018C36.2425 27.0342 35.8112 27.6771 35.2578 28.2305C34.6719 28.7839 34.0127 29.2152 33.2803 29.5244C32.5479 29.8337 31.791 29.9883 31.0098 29.9883Z" fill="white"/>
</svg>
