<svg width="38" height="42" viewBox="0 0 38 42" fill="none" xmlns="http://www.w3.org/2000/svg">
<path d="M37.9941 2.98242V6.98633C37.9941 8.8418 37.6361 10.6322 36.9199 12.3574C36.2038 14.0827 35.1947 15.5964 33.8926 16.8984C32.5905 18.2005 31.0768 19.2096 29.3516 19.9258C27.6263 20.6419 25.8359 21 23.9805 21H21.9785V23.002H31.9883V37.0156C31.9883 37.5365 31.8906 38.041 31.6953 38.5293C31.5 39.0176 31.207 39.457 30.8164 39.8477C30.4583 40.2057 30.0352 40.4906 29.5469 40.7021C29.0586 40.9137 28.5378 41.0195 27.9844 41.0195H12.0176C11.4642 41.0195 10.9434 40.9137 10.4551 40.7021C9.9668 40.4906 9.54362 40.2057 9.18555 39.8477C8.79492 39.457 8.50195 39.0176 8.30664 38.5293C8.11133 38.041 8.01367 37.5365 8.01367 37.0156V23.002H18.0234V16.9961C18.0234 15.1406 18.3734 13.3584 19.0732 11.6494C19.7731 9.94043 20.7741 8.41862 22.0762 7.08398C23.4108 5.7819 24.9326 4.77279 26.6416 4.05664C28.3506 3.3405 30.1328 2.98242 31.9883 2.98242H37.9941ZM6.98828 0.980469C8.19271 0.980469 9.38086 1.12695 10.5527 1.41992C11.7246 1.71289 12.8314 2.13607 13.873 2.68945C14.9473 3.24284 15.9482 3.86946 16.876 4.56934C17.8037 5.26921 18.6094 6.10742 19.293 7.08398C18.2513 7.93034 17.4049 9.35449 16.7539 11.3564C16.1029 13.3584 15.7773 15.2383 15.7773 16.9961V18.998H14.9961C13.0104 18.998 11.098 18.6156 9.25879 17.8506C7.4196 17.0856 5.80013 16.0033 4.40039 14.6035C3.00065 13.2038 1.91829 11.5843 1.15332 9.74512C0.388346 7.90593 0.00585938 5.99349 0.00585938 4.00781V0.980469H6.98828Z" fill="white"/>
</svg>
