<svg width="42" height="42" viewBox="0 0 42 42" fill="none" xmlns="http://www.w3.org/2000/svg">
<path d="M40.8538 2.00556C41.3095 5.32587 40.805 8.48342 39.3401 11.4782C37.8753 14.473 36.1745 17.1097 34.2376 19.3884C32.3008 21.667 30.486 23.4737 28.7933 24.8083C27.1006 26.1755 26.2542 26.8591 26.2542 26.8591C26.775 31.221 26.5309 33.988 25.5218 35.1599C24.5127 36.3317 22.1364 37.6826 18.3929 39.2126C17.8395 39.4405 17.2536 39.6765 16.6351 39.9206C16.0166 40.1647 15.3818 40.4333 14.7308 40.7263C13.6891 41.182 12.9892 41.1413 12.6312 40.6042C12.2731 40.0671 12.2405 39.4079 12.5335 38.6266L14.389 33.6462L8.33429 27.5915L3.35382 29.447C2.57257 29.7399 1.91339 29.7074 1.37628 29.3493C0.839171 28.9912 0.798481 28.3076 1.25421 27.2985C1.54718 26.6149 1.81573 25.9639 2.05987 25.3454C2.30402 24.7269 2.54002 24.141 2.76788 23.5876C4.29783 19.8441 5.64874 17.4678 6.82062 16.4587C7.99249 15.4496 10.7594 15.2054 15.1214 15.7263C15.1214 15.7263 15.805 14.8799 17.1722 13.1872C18.5068 11.4945 20.3135 9.67971 22.5921 7.74286C24.8707 5.80601 27.5075 4.10517 30.5023 2.64032C33.497 1.17548 36.6546 0.670921 39.9749 1.12665C40.0726 1.1592 40.1784 1.19175 40.2923 1.22431C40.4062 1.25686 40.4957 1.32196 40.5608 1.41962C40.6585 1.48472 40.7236 1.57424 40.7562 1.68818C40.7887 1.8021 40.8213 1.9079 40.8538 2.00556ZM5.7464 35.8434C5.64874 36.0713 5.68943 36.2666 5.86847 36.4294C6.0475 36.5921 6.23468 36.641 6.42999 36.5759L12.5823 34.5251L7.74835 29.6911L5.7464 35.8434ZM29.5745 15.8727C30.5185 15.8727 31.3242 15.5391 31.9915 14.8718C32.6588 14.2044 32.9925 13.3825 32.9925 12.4059C32.9925 11.4619 32.6588 10.6563 31.9915 9.98895C31.3242 9.32164 30.5185 8.98798 29.5745 8.98798C28.598 8.98798 27.776 9.32164 27.1087 9.98895C26.4414 10.6563 26.1077 11.4619 26.1077 12.4059C26.1077 13.3825 26.4414 14.2044 27.1087 14.8718C27.776 15.5391 28.598 15.8727 29.5745 15.8727Z" fill="white"/>
</svg>
