<svg width="42" height="42" viewBox="0 0 42 42" fill="none" xmlns="http://www.w3.org/2000/svg">
<path d="M0.980469 3.86133C0.980469 3.08008 1.2653 2.40462 1.83496 1.83496C2.40462 1.2653 3.08008 0.980469 3.86133 0.980469H16.7031C17.4844 0.980469 18.1598 1.2653 18.7295 1.83496C19.2992 2.40462 19.584 3.08008 19.584 3.86133V16.7031C19.584 17.4844 19.2992 18.1598 18.7295 18.7295C18.1598 19.2992 17.4844 19.584 16.7031 19.584H3.86133C3.08008 19.584 2.40462 19.2992 1.83496 18.7295C1.2653 18.1598 0.980469 17.4844 0.980469 16.7031V3.86133ZM3.86133 22.416C3.08008 22.416 2.40462 22.7008 1.83496 23.2705C1.2653 23.8402 0.980469 24.5156 0.980469 25.2969V38.1387C0.980469 38.9199 1.2653 39.5954 1.83496 40.165C2.40462 40.7347 3.08008 41.0195 3.86133 41.0195H16.7031C17.4844 41.0195 18.1598 40.7347 18.7295 40.165C19.2992 39.5954 19.584 38.9199 19.584 38.1387V25.2969C19.584 24.5156 19.2992 23.8402 18.7295 23.2705C18.1598 22.7008 17.4844 22.416 16.7031 22.416H3.86133ZM31.6934 41.0195C34.265 41.0195 36.4622 40.1081 38.2852 38.2852C40.1081 36.4622 41.0195 34.265 41.0195 31.6934C41.0195 29.1543 40.1081 26.9733 38.2852 25.1504C36.4622 23.3275 34.265 22.416 31.6934 22.416C29.1543 22.416 26.9733 23.3275 25.1504 25.1504C23.3275 26.9733 22.416 29.1543 22.416 31.6934C22.416 34.265 23.3275 36.4622 25.1504 38.2852C26.9733 40.1081 29.1543 41.0195 31.6934 41.0195ZM25.2969 0.980469C24.5156 0.980469 23.8402 1.2653 23.2705 1.83496C22.7008 2.40462 22.416 3.08008 22.416 3.86133V16.7031C22.416 17.4844 22.7008 18.1598 23.2705 18.7295C23.8402 19.2992 24.5156 19.584 25.2969 19.584H38.1387C38.9199 19.584 39.5954 19.2992 40.165 18.7295C40.7347 18.1598 41.0195 17.4844 41.0195 16.7031V3.86133C41.0195 3.08008 40.7347 2.40462 40.165 1.83496C39.5954 1.2653 38.9199 0.980469 38.1387 0.980469H25.2969Z" fill="white"/>
</svg>
