<svg width="165" height="56" viewBox="0 0 165 56" fill="none" xmlns="http://www.w3.org/2000/svg">
<g clip-path="url(#clip0_2648_731)">
<path d="M32.7744 44.4645C35.4939 44.4645 36.9352 45.6438 36.9352 48.0293C36.9352 50.4147 35.4939 51.5941 32.7744 51.5941H29.8918V55.5609H27.9338V44.4645H32.7744ZM32.6928 49.9055C34.2157 49.9055 34.8956 49.3158 34.8956 48.1097C34.8956 46.9303 34.2157 46.3139 32.6928 46.3139H29.8918V49.8787H32.6928V49.9055ZM48.5472 53.4971H42.8092L41.9118 55.5877H39.7906L44.7128 44.4913H46.6708L51.6474 55.5877H49.4446L48.5472 53.4971ZM45.6918 46.7963L43.5706 51.7817H47.8673L45.6918 46.7963ZM56.2704 55.5609V44.4645H61.247C63.9665 44.4645 65.4078 45.6438 65.4078 47.9757C65.4078 49.7715 64.5647 50.8704 62.9059 51.3261L65.7069 55.5609H63.2866L60.7847 51.4601H58.2828V55.5609H56.2704ZM61.1654 49.7715C62.6067 49.7715 63.2866 49.1818 63.2866 48.0561C63.2866 46.8767 62.6067 46.3407 61.1654 46.3407H58.2828V49.7715H61.1654ZM73.1854 55.5609V46.2603H69.6229V44.4645H78.6786V46.2603H75.1162V55.5609H73.1854ZM90.9433 55.5609L85.4229 46.6355V55.5609H83.4649V44.4645H86.2659L91.4056 52.8002V44.4645H93.3636V55.5609H90.9433ZM106.281 49.155V50.8704H101.223V53.7651H107.505V55.5609H99.1833V44.4645H107.505V46.2603H101.223V49.1014H106.281V49.155ZM112.699 55.5609V44.4645H117.676C120.395 44.4645 121.837 45.6438 121.837 47.9757C121.837 49.7715 120.994 50.8704 119.335 51.3261L122.136 55.5609H119.715L117.213 51.4601H114.712V55.5609H112.699ZM117.594 49.7715C119.036 49.7715 119.715 49.1818 119.715 48.0561C119.715 46.8767 119.036 46.3407 117.594 46.3407H114.712V49.7715H117.594ZM134.591 45.2149V47.3056H134.509C133.748 46.5551 132.47 46.1262 131.028 46.1262C129.587 46.1262 128.69 46.7159 128.69 47.6808C128.69 48.5117 129.288 48.8602 131.191 49.021C134.21 49.3158 135.271 50.3611 135.271 52.3714C135.271 54.462 133.612 55.7218 130.892 55.7218C129.07 55.7218 127.575 55.3465 126.65 54.6764V52.5054H126.732C127.711 53.3899 129.152 53.9259 130.811 53.9259C132.388 53.9259 133.231 53.4167 133.231 52.3714C133.231 51.5405 132.633 51.1116 130.593 50.8704C127.656 50.5756 126.596 49.6106 126.596 47.6808C126.596 45.5098 128.254 44.25 130.974 44.25C132.551 44.3304 133.911 44.7057 134.591 45.2149Z" fill="#7C93C0"/>
<path d="M31.5508 2.19585H35.4124V21.1725H35.3308L21.516 1.65979H14.5543H11.6988H0.739502V2.16905H4.60111V30.2319H0.739502V30.8216H14.5543H19.9932V30.2319H16.2131V4.55453H16.2947L34.9501 30.902H36.0923V2.19585H39.8723V1.68659H31.5508C31.5508 1.65979 31.5508 2.19585 31.5508 2.19585ZM15.5333 30.3391H11.6988H10.7198V2.19585H11.6988H14.5815H15.5605C15.5333 2.19585 15.5333 30.3391 15.5333 30.3391ZM61.4647 18.1973C61.9814 19.1622 62.2261 20.288 62.2261 21.7085C62.2261 23.0487 61.927 24.3889 61.3831 25.5682C60.8664 26.8279 60.0234 27.8733 58.9628 28.7578C57.9022 29.7227 56.6241 30.4732 55.2644 30.9824C53.7415 31.5721 52.1642 31.8133 50.5053 31.8133C49.6079 31.8133 48.7649 31.7329 47.949 31.5989C47.106 31.4381 46.2902 31.2237 45.5287 31.0896C44.7673 30.9288 44.0874 30.7144 43.5707 30.5804C43.1084 30.4196 42.7277 30.366 42.2926 30.366C41.9935 30.366 41.6943 30.4464 41.4496 30.5804C41.232 30.7948 41.0689 31.036 40.9873 31.3309H40.3074V21.9498H40.9057C40.9873 22.325 41.0689 22.7003 41.2048 23.2899C41.368 23.8796 41.5855 24.4693 41.8031 25.0857C42.1022 25.7558 42.4014 26.4259 42.7821 27.0156C43.2444 27.6856 43.6795 28.2753 44.305 28.865C44.8217 29.4546 45.5015 29.9103 46.1814 30.366C46.6981 30.6608 47.3236 30.8752 47.9219 31.1164C48.4385 31.2773 48.9824 31.3309 49.4991 31.3309C50.0158 31.3309 50.4781 31.3309 50.8589 31.3309C52.3817 31.3309 53.5783 31.1164 54.5573 30.6608C55.4547 30.2855 56.2162 29.6959 56.8144 28.9454C57.3311 28.2753 57.7934 27.5248 58.011 26.7743C58.2285 26.1847 58.3101 25.5146 58.3101 24.8445C58.3101 23.96 58.0926 23.0487 57.5487 22.325C57.032 21.6549 56.3521 21.0653 55.5907 20.6096C54.6933 20.154 53.7687 19.7787 52.7897 19.4839L49.5535 18.519C48.4929 18.2241 47.3508 17.8489 46.3174 17.3932C45.3384 16.9376 44.3594 16.4283 43.5164 15.6778C42.6733 15.0078 41.9935 14.1233 41.5584 13.1583C41.0417 12.113 40.7969 10.9337 40.7969 9.35229C40.7969 8.22656 41.0145 7.12763 41.5584 6.16271C42.075 5.11739 42.7549 4.15248 43.6795 3.40199C44.6585 2.5711 45.7191 1.90102 46.9157 1.47217C48.1938 0.962909 49.6351 0.72168 50.9948 0.72168C51.8379 0.72168 52.6537 0.802091 53.4151 1.01652C54.095 1.17733 54.7749 1.39176 55.2915 1.52577C55.8082 1.68659 56.2705 1.90102 56.7328 2.03504C57.1136 2.19585 57.4943 2.24946 57.875 2.24946C58.2557 2.24946 58.5549 2.16905 58.6365 2.03504C58.7996 1.82061 58.9356 1.57938 59.0172 1.36496H59.697V9.32548H59.2075C58.9084 8.36057 58.5277 7.39566 58.147 6.43075C57.7662 5.54624 57.3039 4.63494 56.7057 3.83084C56.1074 3.08036 55.3459 2.41028 54.4485 1.98143C53.5511 1.52578 52.4089 1.31135 51.0492 1.31135C50.0702 1.31135 49.0096 1.47217 48.1122 1.767C47.2692 2.06184 46.5893 2.43708 45.9095 2.94634C45.3928 3.40199 44.8489 3.99166 44.5497 4.66174C44.2506 5.25141 44.0874 5.92149 44.0874 6.51116C44.0874 7.39566 44.305 8.22655 44.9305 8.97704C45.4472 9.64712 46.2086 10.2368 46.97 10.612C47.8675 11.1213 48.8465 11.4966 49.8527 11.7914C50.9132 12.1666 52.0554 12.4615 53.1704 12.8367C54.2854 13.212 55.4275 13.5872 56.4881 14.016C57.5487 14.3913 58.5277 14.981 59.3707 15.651C60.3497 16.4015 61.0296 17.2324 61.4647 18.1973ZM62.77 1.65979H76.5848V2.16905H72.7232V30.2319H76.5848V30.8216H62.77V30.2319H66.6316V2.19585H62.77V1.65979ZM106.635 20.6632H103.997V30.2587H103.236C103.236 29.9639 103.018 29.6691 102.773 29.5083C102.474 29.3474 102.175 29.2938 101.876 29.2938C101.196 29.2938 100.598 29.4546 99.9992 29.6691L98.1228 30.5536C97.3614 30.9288 96.5455 31.1432 95.7841 31.4381C94.7235 31.7329 93.6629 31.8937 92.5479 31.8133C90.5899 31.8133 88.5504 31.4381 86.7283 30.634C84.9063 29.8835 83.2474 28.7846 81.8061 27.364C80.3648 25.9434 79.2499 24.3084 78.4068 22.459C76.6664 18.4386 76.748 13.9088 78.57 9.88835C79.4674 8.03894 80.6912 6.37714 82.1869 4.98338C83.6282 3.64322 85.287 2.5979 87.1634 1.84741C88.9039 1.09693 90.7259 0.72168 92.5207 0.72168C93.3638 0.72168 94.098 0.80209 94.941 0.936106C95.7025 1.09692 96.4639 1.31135 97.0622 1.44537C97.7421 1.60619 98.3404 1.82061 98.8027 1.95463C99.265 2.11544 99.6457 2.16905 100.081 2.16905C100.38 2.16905 100.679 2.08864 100.924 1.95463C101.142 1.7402 101.305 1.49897 101.386 1.28455H102.066V9.83474H101.468C100.788 7.07402 99.6457 4.98338 98.2316 3.4288C96.7903 1.92782 94.9138 1.12373 92.4935 1.20414C90.6171 1.20414 89.0942 1.57938 87.8977 2.32987C86.7555 3.08035 85.8581 4.04527 85.2598 5.2246C84.58 6.48435 84.1992 7.90492 84.0633 9.32548C83.8457 10.8801 83.7641 12.3811 83.7641 13.9356V17.5809C83.7641 19.7519 83.9273 21.8962 84.2808 23.9868C84.58 25.7022 85.1238 27.1228 85.8037 28.1681C86.4836 29.2134 87.381 29.9639 88.5232 30.4732C89.8013 30.9824 91.161 31.2237 92.5207 31.1432C93.7989 31.1432 94.7779 30.9288 95.5393 30.4732C96.3008 30.0175 96.899 29.3474 97.2798 28.6238C97.7421 27.7392 97.9596 26.7743 98.0412 25.7826C98.1228 24.6569 98.2044 23.4776 98.2044 22.2178V20.6632H93.962V20.0736H106.662V20.6632H106.635ZM163.906 1.65979V9.24507H163.39C163.091 8.06574 162.547 6.8596 162.03 5.73387C161.568 4.90297 161.051 4.17929 160.29 3.64322C159.691 3.13396 158.93 2.75872 158.087 2.5979C157.189 2.38347 156.265 2.30307 155.367 2.30307H153.844V30.366H157.706V30.9556H143.946V30.366H147.807V2.22266H146.284C145.387 2.22266 144.408 2.30307 143.565 2.51749C142.722 2.73192 142.042 3.10716 141.362 3.56281C140.682 4.15248 140.084 4.90297 139.622 5.65346C139.023 6.77919 138.561 7.95852 138.262 9.16466H137.745V2.16905H134.264V30.2319H138.18V30.8216H124.202V30.2319H128.118V16.2407H115.799V30.3123H119.715V30.902H105.656V30.3123H109.572V2.16905H105.656V1.65979H119.634V2.16905H115.718V15.651H128.037V2.16905H124.121V1.65979H138.099H163.906Z" fill="#7C93C0"/>
</g>
<defs>
<clipPath id="clip0_2648_731">
<rect width="164" height="55" fill="white" transform="translate(0.322754 0.72168)"/>
</clipPath>
</defs>
</svg>
