<svg width="101" height="101" viewBox="0 0 101 101" fill="none" xmlns="http://www.w3.org/2000/svg">
<g clip-path="url(#clip0_2648_655)">
<path d="M33.7174 100.481V79.1851C14.9288 77.0033 0.292725 60.9912 0.292725 41.6245V38.2942C0.292725 17.4435 17.2548 0.481445 38.0999 0.481445H62.238C83.0855 0.481445 100.048 17.4435 100.048 38.2918V41.622C100.048 61.9952 83.8519 78.6561 63.6629 79.4079L33.7174 100.479V100.481ZM38.0999 9.24535C22.0853 9.24535 9.05775 22.2748 9.05775 38.2918V41.622C9.05775 57.639 22.0853 70.6709 38.0999 70.6709H42.4824V83.6001L60.8522 70.6709H62.238C78.2525 70.6709 91.2826 57.639 91.2826 41.622V38.2918C91.2826 22.2748 78.2525 9.24535 62.238 9.24535H38.0999Z" fill="#26DD70"/>
<path d="M73.5787 34.6748H29.8882V43.4412H73.5787V34.6748Z" fill="#26DD70"/>
</g>
<defs>
<clipPath id="clip0_2648_655">
<rect width="100" height="100" fill="white" transform="translate(0.292725 0.481445)"/>
</clipPath>
</defs>
</svg>
  