<svg width="112" height="101" viewBox="0 0 112 101" fill="none" xmlns="http://www.w3.org/2000/svg">
<path d="M32.7172 8.9238C37.86 8.9238 42.7762 10.9471 47.3611 14.9415C48.2676 15.7265 49.1567 16.5637 49.9935 17.401L50.0981 17.5231L56.0777 23.506L62.0398 17.5056L62.1095 17.4359C62.9638 16.5812 63.8529 15.7614 64.742 14.9764C69.3269 10.9646 74.2605 8.9238 79.4207 8.9238C88.4336 8.9238 97.3594 15.3253 101.16 24.4828C103.235 29.4889 105.292 39.3092 95.7556 48.8505L56.0951 88.533L16.3998 48.8679C6.86387 39.3267 8.92098 29.5063 10.9955 24.4828C14.7959 15.3253 23.7217 8.9238 32.7172 8.9238ZM32.7172 0.481445C8.36312 0.481445 -11.8594 32.5414 10.4377 54.8334L56.1125 100.481L101.735 54.8334C124.015 32.524 103.793 0.481445 79.4381 0.481445C72.7438 0.481445 65.7357 2.906 59.2156 8.60983C58.1522 9.5343 57.1237 10.5111 56.1125 11.5053C56.1125 11.5053 56.1125 11.5227 56.0951 11.5227C56.0951 11.5227 56.0951 11.5227 56.0777 11.5053C55.0491 10.4762 54.0031 9.49942 52.9397 8.5575C46.4023 2.88857 39.3941 0.481445 32.7172 0.481445Z" fill="#F4674C"/>
</svg>
