<svg width="101" height="63" viewBox="0 0 101 63" fill="none" xmlns="http://www.w3.org/2000/svg">
<g clip-path="url(#clip0_2648_648)">
<path d="M50.6426 8.1299C67.6797 8.1299 83.1571 16.9304 91.9145 31.3408C83.1571 45.7512 67.6777 54.5517 50.6426 54.5517C33.6075 54.5517 18.1281 45.7531 9.3707 31.3408C18.1281 16.9304 33.6075 8.1299 50.6426 8.1299ZM50.6426 0.481445C28.7804 0.481445 9.86003 13.0407 0.642578 31.3408C9.86003 49.6408 28.7804 62.2002 50.6426 62.2002C72.5048 62.2002 91.4251 49.6408 100.643 31.3408C91.4251 13.0407 72.5048 0.481445 50.6426 0.481445Z" fill="#6CFFFF"/>
<path d="M50.6425 46.019C37.7131 46.019 27.1953 35.4846 27.1953 22.5348C27.1953 13.6815 32.0847 5.66988 39.955 1.62598L43.4408 8.43285C38.1322 11.1607 34.8336 16.5636 34.8336 22.5348C34.8336 31.2669 41.926 38.3706 50.6444 38.3706C59.3628 38.3706 66.4552 31.2669 66.4552 22.5348C66.4552 16.876 63.4081 11.6098 58.5011 8.78823L62.3027 2.15514C69.5745 6.33572 74.0896 14.1443 74.0896 22.5348C74.0896 35.4846 63.5718 46.019 50.6425 46.019Z" fill="#6CFFFF"/>
</g>
<defs>
<clipPath id="clip0_2648_648">
<rect width="100" height="62" fill="white" transform="translate(0.642578 0.481445)"/>
</clipPath>
</defs>
</svg>
