<svg width="71" height="101" viewBox="0 0 71 101" fill="none" xmlns="http://www.w3.org/2000/svg">
<path d="M53.1794 8.06408L41.6668 33.4793H57.1714C61.8809 33.4793 64.4104 39.0174 61.3306 42.5831L24.6383 76.6827L32.0847 49.8776H13.2147C9.42793 49.8776 6.77364 46.1339 8.02459 42.5556L20.0832 8.06408H53.1794ZM64.9311 0.481445H14.7069L12.931 5.55984L0.874501 40.0513C-0.522495 44.0471 0.104036 48.4941 2.5509 51.9454C4.99776 55.3988 8.98555 57.4602 13.2147 57.4602H22.1152L17.34 74.6509L10.1646 100.481L29.7945 82.2399L66.4868 48.1403L66.7916 47.8585L67.0625 47.545C70.4513 43.6233 71.2175 38.2568 69.0649 33.5428C66.9101 28.8267 62.3551 25.8988 57.1735 25.8988H53.4228L60.0818 11.1975L64.9311 0.481445Z" fill="#17E0D1"/>
</svg>
