<svg width="101" height="101" viewBox="0 0 101 101" fill="none" xmlns="http://www.w3.org/2000/svg">
<path d="M51.2178 9.86701C51.8419 9.86701 52.3087 10.145 52.6024 10.693L63.1995 30.3637C65.0483 33.7964 67.8255 36.6128 71.2372 38.5036L90.7741 49.3498C90.976 49.4626 91.5897 49.8035 91.5844 50.7345C91.5792 51.6654 90.9603 51.9985 90.7584 52.1086L71.0851 62.7057C67.6524 64.5545 64.8386 67.3343 62.9452 70.7408L52.0989 90.2776C51.9888 90.477 51.6505 91.088 50.7248 91.088C49.7991 91.088 49.4477 90.4664 49.3375 90.2619L38.7378 70.5887C36.889 67.1586 34.1119 64.3447 30.7028 62.4513L11.1659 51.6051C10.9639 51.4923 10.3503 51.154 10.3555 50.2205C10.3607 49.2869 10.9797 48.9539 11.1816 48.8463L30.8522 38.2492C34.2823 36.4004 37.0988 33.6233 38.9922 30.2142L49.8384 10.6773C49.9486 10.478 50.2868 9.86964 51.2126 9.86964M51.2126 0.484068C47.4678 0.484068 43.723 2.36171 41.6329 6.12486L30.7867 25.6617C29.7692 27.4947 28.2482 28.9974 26.402 29.9886L6.73397 40.5858C-0.891974 44.6951 -0.962774 55.6095 6.61334 59.8158L26.1503 70.6621C27.9833 71.6796 29.486 73.2006 30.4799 75.0467L41.077 94.72C43.1434 98.5565 46.9354 100.481 50.7274 100.481C54.5194 100.481 58.217 98.6038 60.307 94.8406L71.1533 75.3037C72.1708 73.4707 73.6918 71.968 75.5379 70.9741L95.2112 60.377C102.837 56.2677 102.906 45.3533 95.3318 41.147L75.7949 30.3007C73.9619 29.2832 72.4592 27.7622 71.468 25.9161L60.8656 6.24286C58.7992 2.40629 55.0098 0.481445 51.2178 0.481445L51.2126 0.484068Z" fill="#FFBC00"/>
</svg>
