<svg width="24" height="24" viewBox="0 0 24 24" fill="none" xmlns="http://www.w3.org/2000/svg">
<path fill-rule="evenodd" clip-rule="evenodd" d="M7.43687 0.435702C8.65595 0.379346 9.04453 0.367188 12.1486 0.367188C15.2527 0.367188 15.6413 0.38087 16.8589 0.435702C18.0764 0.490535 18.9085 0.685529 19.6353 0.965785C20.3973 1.25366 21.0876 1.70293 21.659 2.28476C22.2411 2.85593 22.6907 3.54439 22.9772 4.30748C23.2591 5.03401 23.4526 5.86565 23.509 7.07958C23.5654 8.29961 23.5776 8.68803 23.5776 11.7906C23.5776 14.8932 23.5638 15.2816 23.509 16.5001C23.4541 17.7156 23.2591 18.5457 22.9772 19.2738C22.6907 20.0354 22.2411 20.7253 21.659 21.2965C21.0876 21.8784 20.3973 22.3277 19.6353 22.614C18.9085 22.8958 18.0764 23.0892 16.8619 23.1456C15.6413 23.2019 15.2527 23.2141 12.1486 23.2141C9.04453 23.2141 8.65595 23.2004 7.43687 23.1456C6.22083 23.0907 5.39032 22.8958 4.66344 22.614C3.89998 22.3277 3.20968 21.8784 2.63824 21.2965C2.05612 20.7269 1.60659 20.0369 1.31858 19.2738C1.03819 18.5473 0.84465 17.7156 0.788267 16.5017C0.731884 15.2817 0.719696 14.8932 0.719696 11.7906C0.719696 8.68803 0.733408 8.29963 0.788267 7.08265C0.843126 5.86567 1.03819 5.03401 1.31858 4.30748C1.60659 3.54439 2.05765 2.85441 2.63824 2.28476C3.20968 1.70293 3.9 1.25366 4.66192 0.965785C5.3888 0.685529 6.22082 0.492058 7.43533 0.435702H7.43687ZM16.7674 2.49198C15.5621 2.43715 15.2009 2.42495 12.1486 2.42495C9.09787 2.42495 8.73518 2.43715 7.52981 2.49198C6.41587 2.54224 5.81091 2.72806 5.40709 2.88494C4.87526 3.09361 4.49277 3.33879 4.09352 3.73937C3.71408 4.10797 3.42302 4.55729 3.23863 5.05231C3.08168 5.45594 2.89577 6.06063 2.84548 7.17403C2.79063 8.37883 2.77842 8.74134 2.77842 11.7906C2.77842 14.8415 2.79063 15.2025 2.84548 16.4072C2.89577 17.5207 3.08168 18.1253 3.23863 18.529C3.4215 19.024 3.71408 19.4733 4.09352 19.8419C4.4623 20.2212 4.91183 20.5136 5.40709 20.6963C5.81091 20.8532 6.41587 21.039 7.52981 21.0893C8.73518 21.1441 9.09634 21.1563 12.1486 21.1563C15.2009 21.1563 15.5621 21.1441 16.7674 21.0893C17.8814 21.039 18.4863 20.8532 18.8902 20.6963C19.422 20.4877 19.8045 20.2425 20.2037 19.8419C20.5832 19.4733 20.8758 19.024 21.0586 18.529C21.2156 18.1253 21.4015 17.5207 21.4518 16.4072C21.5066 15.2025 21.5188 14.8415 21.5188 11.7906C21.5188 8.74134 21.5066 8.37883 21.4518 7.17403C21.4015 6.06063 21.2156 5.45594 21.0586 5.05231C20.8499 4.52074 20.6045 4.13843 20.2037 3.73937C19.835 3.36012 19.3854 3.06924 18.8902 2.88494C18.4863 2.72806 17.8814 2.54224 16.7674 2.49198ZM10.6888 15.3121C11.504 15.6518 12.4123 15.6974 13.2565 15.4415C14.1022 15.1856 14.8321 14.645 15.3228 13.9109C15.8135 13.1783 16.0345 12.2963 15.9476 11.4175C15.8592 10.5402 15.4706 9.71921 14.8443 9.09626C14.4466 8.6972 13.9635 8.39252 13.4332 8.20213C12.9029 8.01326 12.3361 7.94324 11.7753 7.99807C11.2145 8.05442 10.672 8.23262 10.189 8.52202C9.70589 8.81293 9.29292 9.20587 8.979 9.67347C8.66509 10.1426 8.46088 10.6742 8.37707 11.2316C8.29478 11.7891 8.33746 12.3573 8.50052 12.8965C8.66357 13.4372 8.94547 13.9321 9.32339 14.3495C9.70131 14.7683 10.1676 15.0958 10.6888 15.3121ZM7.9946 7.63858C8.54014 7.0933 9.18776 6.66073 9.90093 6.36524C10.6126 6.07128 11.3776 5.91901 12.1486 5.91901C12.9197 5.91901 13.6847 6.07128 14.3963 6.36524C15.1095 6.66073 15.7571 7.0933 16.3027 7.63858C16.8482 8.18386 17.281 8.83124 17.5766 9.54406C17.8707 10.2554 18.0231 11.0199 18.0231 11.7906C18.0231 12.5613 17.8707 13.3259 17.5766 14.0372C17.281 14.75 16.8482 15.3974 16.3027 15.9427C15.2009 17.0439 13.706 17.6623 12.1486 17.6623C10.5912 17.6623 9.09634 17.0439 7.9946 15.9427C6.89285 14.8415 6.27416 13.3473 6.27416 11.7906C6.27416 10.234 6.89285 8.7398 7.9946 7.63858ZM19.326 6.79325C19.4616 6.66531 19.5698 6.51296 19.6445 6.34237C19.7192 6.17331 19.7588 5.989 19.7618 5.80318C19.7649 5.61736 19.7298 5.43313 19.6597 5.26101C19.5896 5.0889 19.486 4.93354 19.355 4.80103C19.2239 4.67004 19.0669 4.56645 18.8947 4.49638C18.7226 4.42632 18.5382 4.39278 18.3523 4.39431C18.1663 4.39735 17.9835 4.43696 17.8128 4.51312C17.6437 4.58775 17.4898 4.6959 17.3618 4.82994C17.1149 5.09344 16.9793 5.4422 16.9838 5.80318C16.9884 6.16416 17.1347 6.50994 17.3907 6.76583C17.6467 7.02019 17.9911 7.1664 18.3523 7.17097C18.7134 7.17706 19.0624 7.04152 19.326 6.79325Z" fill="#172B43"/>
</svg>
