<svg width="26" height="33" viewBox="0 0 26 33" fill="none" xmlns="http://www.w3.org/2000/svg">
<path d="M13.0506 0.702637C9.71796 0.707206 6.52244 2.03234 4.16503 4.38709C1.80915 6.74337 0.483379 9.93736 0.478808 13.2684C0.474236 15.9903 1.36417 18.639 3.01146 20.8079C3.01146 20.8079 3.35432 21.2588 3.4107 21.3243L13.0506 32.6883L22.6951 21.3182C22.7454 21.2588 23.0898 20.8079 23.0898 20.8079L23.0913 20.8049C24.7371 18.6375 25.627 15.9903 25.6225 13.2684C25.6179 9.93736 24.2921 6.74337 21.9362 4.38709C19.5788 2.03234 16.3833 0.707206 13.0506 0.702637ZM13.0506 17.8378C12.147 17.8378 11.2631 17.5697 10.5104 17.0671C9.75909 16.566 9.17241 15.8517 8.8265 15.017C8.48058 14.1823 8.39068 13.2639 8.56744 12.3774C8.74269 11.491 9.17851 10.6761 9.81853 10.0379C10.457 9.39816 11.2723 8.96257 12.1592 8.78742C13.0461 8.61073 13.9649 8.70057 14.8 9.04632C15.6351 9.39207 16.3498 9.97849 16.8511 10.7294C17.354 11.4818 17.6222 12.3652 17.6222 13.2684C17.6207 14.4793 17.1391 15.6415 16.2812 16.4975C15.4248 17.355 14.2621 17.8363 13.0506 17.8378Z" fill="white"/>
</svg>
