<svg width="28" height="28" viewBox="0 0 28 28" fill="none" xmlns="http://www.w3.org/2000/svg">
<path d="M15.5745 8.18035C18.7791 8.18035 20.146 9.5466 20.146 12.7497H23.1937C23.1937 7.83765 20.4889 5.1341 15.5745 5.1341V8.18035ZM20.7891 16.4707C20.4965 16.2057 20.111 16.0626 19.7163 16.0747C19.3201 16.0869 18.9452 16.2529 18.6694 16.5362L15.0228 20.2846C14.1451 20.1171 12.3805 19.5672 10.564 17.7562C8.74759 15.9391 8.19747 14.1708 8.03442 13.2996L11.7816 9.65323C12.065 9.37755 12.2311 9.00284 12.2433 8.60683C12.2555 8.21234 12.1138 7.82697 11.8471 7.53453L6.21644 1.34608C5.94977 1.05364 5.57948 0.875454 5.18328 0.849561C4.78707 0.825191 4.39849 0.956155 4.09677 1.21356L0.790001 4.04809C0.526374 4.31311 0.369404 4.66498 0.34807 5.03663C0.325212 5.41741 -0.110611 14.4374 6.88694 21.4346C12.9915 27.5347 20.6382 27.981 22.7442 27.981C23.052 27.981 23.241 27.9719 23.2913 27.9688C23.6646 27.949 24.0151 27.7906 24.2787 27.5256L27.1131 24.2189C27.3722 23.9188 27.5017 23.5289 27.4773 23.1329C27.4529 22.7384 27.2762 22.3668 26.982 22.1002L20.7891 16.4707Z" fill="white"/>
</svg>
