<svg width="23" height="17" viewBox="0 0 23 17" fill="none" xmlns="http://www.w3.org/2000/svg">
<path d="M19.3579 2.20076C17.8767 1.60522 16.3117 1.1802 14.7056 0.938026C14.6918 0.93498 14.6766 0.936582 14.6629 0.942675C14.6492 0.948767 14.6385 0.957857 14.6309 0.968519C14.4298 1.28076 14.2073 1.68893 14.0518 2.00879C12.3192 1.7788 10.5577 1.7788 8.82503 2.00879C8.65131 1.65238 8.45471 1.30513 8.23679 0.968519C8.22917 0.957857 8.21851 0.948767 8.2048 0.942675C8.19261 0.938105 8.17739 0.93498 8.16215 0.938026C6.55601 1.1802 4.99099 1.60369 3.5098 2.20076C3.49761 2.20381 3.48696 2.21291 3.47934 2.22205C0.516963 6.09231 -0.296806 9.86812 0.102445 13.5952C0.103969 13.6135 0.116166 13.6302 0.132929 13.6424C1.85794 14.7589 3.78713 15.6118 5.83977 16.1647C5.85501 16.1693 5.87023 16.1693 5.88395 16.1647C5.89919 16.1602 5.91139 16.1525 5.91901 16.1419C6.35941 15.6164 6.75104 15.0635 7.08781 14.4817C7.09543 14.4695 7.09848 14.4558 7.09543 14.4421C7.09239 14.4299 7.08476 14.4177 7.07409 14.4071C7.06647 14.401 7.05733 14.3964 7.04819 14.3934C6.43255 14.1878 5.83675 13.9395 5.2653 13.6516C5.25006 13.6425 5.23786 13.6302 5.23177 13.615C5.2272 13.5998 5.22871 13.5831 5.23633 13.5679C5.24242 13.5587 5.24853 13.5511 5.25767 13.545C5.37806 13.4658 5.49844 13.3835 5.61273 13.3013C5.6234 13.2936 5.63556 13.2891 5.64775 13.2876C5.65994 13.2861 5.67369 13.2876 5.68588 13.2921C9.42696 14.7863 13.4774 14.7863 17.1727 13.2921C17.1849 13.2876 17.1986 13.2861 17.2123 13.2876C17.2261 13.2891 17.2382 13.2936 17.2489 13.3013C17.3632 13.3835 17.4836 13.4658 17.6024 13.545C17.6131 13.5511 17.6207 13.5587 17.6253 13.5694C17.6314 13.5785 17.6329 13.5892 17.6329 13.5999C17.6314 13.609 17.6283 13.6196 17.6222 13.6288C17.6161 13.6379 17.607 13.6455 17.5979 13.6516C17.0264 13.941 16.4306 14.1893 15.8134 14.3934C15.8028 14.3964 15.7936 14.401 15.786 14.4071C15.7799 14.4132 15.7738 14.4223 15.7692 14.4299C15.7662 14.4391 15.7647 14.4466 15.7662 14.4558C15.7662 14.4649 15.7692 14.4741 15.7738 14.4817C16.1167 15.062 16.5098 15.6164 16.9411 16.1419C16.9502 16.1525 16.9624 16.1602 16.9776 16.1647C16.9913 16.1693 17.0066 16.1693 17.0219 16.1647C19.0775 15.6149 21.0098 14.7604 22.7378 13.6424C22.7454 13.6363 22.753 13.6302 22.7576 13.6226C22.7637 13.6135 22.7668 13.6059 22.7668 13.5952C23.2437 9.28628 21.9683 5.54243 19.3869 2.22354C19.3854 2.21897 19.3808 2.21292 19.3762 2.20987C19.3701 2.2053 19.3655 2.20228 19.3579 2.20076ZM7.64707 11.3258C6.51942 11.3258 5.59292 10.4211 5.59292 9.31225C5.59292 8.20189 6.50265 7.29864 7.64707 7.29864C8.79911 7.29864 9.71798 8.20951 9.70122 9.31225C9.70122 10.4211 8.79149 11.3258 7.64707 11.3258ZM15.242 11.3258C14.1159 11.3258 13.1878 10.4211 13.1878 9.31225C13.1878 8.20189 14.0976 7.29864 15.242 7.29864C16.394 7.29864 17.3144 8.20951 17.2961 9.31225C17.2961 10.4211 16.394 11.3258 15.242 11.3258Z" fill="white"/>
</svg>
