<svg width="24" height="19" viewBox="0 0 24 19" fill="white" xmlns="http://www.w3.org/2000/svg">
<path d="M23.2892 2.58451C22.448 2.94245 21.5337 3.19832 20.592 3.29885C21.5703 2.72768 22.3017 1.82293 22.6522 0.756742C21.7333 1.29441 20.7276 1.67213 19.6792 1.87166C19.2418 1.41016 18.7115 1.04311 18.1218 0.79179C17.5336 0.541997 16.8981 0.412553 16.2566 0.414076C13.6615 0.414076 11.5738 2.48555 11.5738 5.02613C11.5738 5.38406 11.6164 5.74043 11.6881 6.08313C7.80222 5.8836 4.33545 4.0559 2.02986 1.25791C1.6108 1.96312 1.38984 2.76726 1.39288 3.58518C1.39288 5.18599 2.22036 6.59794 3.48059 7.42805C2.73694 7.39911 2.01156 7.19804 1.3624 6.84163V6.89806C1.3624 9.13858 2.9716 10.9968 5.11719 11.4233C4.71489 11.5269 4.30042 11.5801 3.88441 11.5801C3.57964 11.5801 3.29161 11.5511 2.99903 11.51C3.59334 13.3378 5.3214 14.666 7.37861 14.7086C5.76942 15.95 3.75182 16.6796 1.56356 16.6796C1.1704 16.6796 0.807728 16.6659 0.431335 16.6232C2.50835 17.9346 4.97242 18.6916 7.62546 18.6916C16.2398 18.6916 20.9547 11.667 20.9547 5.56988C20.9547 5.37035 20.9546 5.16932 20.9409 4.96979C21.8522 4.31332 22.6522 3.49839 23.2892 2.58451Z" fill="white"/>
</svg>
