<svg width="22" height="22" viewBox="0 0 22 22" fill="none" xmlns="http://www.w3.org/2000/svg">
<g id="Section &#226;&#134;&#146; List &#226;&#134;&#146; Item &#226;&#134;&#146; Link &#226;&#134;&#146; SVG" clip-path="url(#clip0_585_421)">
<path id="Vector" d="M21.0308 15.4494L16.437 13.4807C16.2408 13.397 16.0227 13.3794 15.8155 13.4305C15.6084 13.4815 15.4235 13.5985 15.2886 13.7637L13.2542 16.2492C10.0614 14.7439 7.49199 12.1744 5.98664 8.98168L8.47218 6.9473C8.63776 6.81264 8.75494 6.6277 8.80601 6.42048C8.85707 6.21326 8.83924 5.99504 8.75519 5.79887L6.78644 1.20512C6.6942 0.993643 6.53107 0.820983 6.32516 0.716907C6.11926 0.612831 5.88349 0.583863 5.65851 0.634999L1.39289 1.61937C1.17598 1.66946 0.982463 1.79159 0.843908 1.96583C0.705353 2.14006 0.629947 2.35612 0.629997 2.57873C0.629997 13.0992 9.15715 21.61 19.6612 21.61C19.8839 21.6101 20.1001 21.5348 20.2744 21.3962C20.4487 21.2576 20.5709 21.0641 20.621 20.8471L21.6054 16.5815C21.6562 16.3554 21.6266 16.1187 21.5217 15.9121C21.4169 15.7055 21.2432 15.5419 21.0308 15.4494Z" fill="#4054B2"/>
</g>
<defs>
<clipPath id="clip0_585_421">
<rect width="21" height="21" fill="white" transform="translate(0.629997 0.609863)"/>
</clipPath>
</defs>
</svg>
