<svg width="22" height="22" viewBox="0 0 22 22" fill="none" xmlns="http://www.w3.org/2000/svg">
<g id="Section &#226;&#134;&#146; List &#226;&#134;&#146; Item &#226;&#134;&#146; Link &#226;&#134;&#146; SVG" clip-path="url(#clip0_585_424)">
<path id="Vector" d="M15.7237 0.609863H6.53625C5.44933 0.609863 4.5675 1.4917 4.5675 2.57861V19.6411C4.5675 20.728 5.44933 21.6099 6.53625 21.6099H15.7237C16.8107 21.6099 17.6925 20.728 17.6925 19.6411V2.57861C17.6925 1.4917 16.8107 0.609863 15.7237 0.609863ZM11.13 20.2974C10.404 20.2974 9.8175 19.7108 9.8175 18.9849C9.8175 18.2589 10.404 17.6724 11.13 17.6724C11.856 17.6724 12.4425 18.2589 12.4425 18.9849C12.4425 19.7108 11.856 20.2974 11.13 20.2974ZM15.7237 15.8677C15.7237 16.1384 15.5023 16.3599 15.2316 16.3599H7.02843C6.75773 16.3599 6.53625 16.1384 6.53625 15.8677V3.0708C6.53625 2.8001 6.75773 2.57861 7.02843 2.57861H15.2316C15.5023 2.57861 15.7237 2.8001 15.7237 3.0708V15.8677Z" fill="#4054B2"/>
</g>
<defs>
<clipPath id="clip0_585_424">
<rect width="21" height="21" fill="white" transform="translate(0.629997 0.609863)"/>
</clipPath>
</defs>
</svg>
