<svg width="22" height="22" viewBox="0 0 22 22" fill="none" xmlns="http://www.w3.org/2000/svg">
<g id="Section &#226;&#134;&#146; List &#226;&#134;&#146; Item &#226;&#134;&#146; SVG" clip-path="url(#clip0_585_433)">
<path id="Vector" d="M11.13 0.937988C5.51086 0.937988 0.958122 5.49072 0.958122 11.1099C0.958122 16.729 5.51086 21.2817 11.13 21.2817C16.7491 21.2817 21.3019 16.729 21.3019 11.1099C21.3019 5.49072 16.7491 0.937988 11.13 0.937988ZM14.9235 13.7759L14.1032 14.8013C14.0494 14.8686 13.9828 14.9246 13.9073 14.9662C13.8318 15.0078 13.7489 15.0341 13.6632 15.0436C13.5776 15.0531 13.4909 15.0457 13.4081 15.0217C13.3253 14.9977 13.2481 14.9576 13.1808 14.9038L10.4327 12.8645C10.2407 12.7108 10.0857 12.5158 9.97924 12.2941C9.87274 12.0724 9.81747 11.8296 9.8175 11.5836V5.20361C9.8175 5.02956 9.88664 4.86265 10.0097 4.73957C10.1328 4.6165 10.2997 4.54736 10.4737 4.54736H11.7862C11.9603 4.54736 12.1272 4.6165 12.2503 4.73957C12.3734 4.86265 12.4425 5.02956 12.4425 5.20361V11.1099L14.8214 12.853C14.8887 12.9069 14.9448 12.9735 14.9864 13.049C15.0279 13.1246 15.0542 13.2076 15.0637 13.2933C15.0732 13.379 15.0657 13.4657 15.0416 13.5485C15.0176 13.6313 14.9775 13.7086 14.9235 13.7759Z" fill="#4054B2"/>
</g>
<defs>
<clipPath id="clip0_585_433">
<rect width="21" height="21" fill="white" transform="translate(0.629997 0.609863)"/>
</clipPath>
</defs>
</svg>
