<svg width="22" height="22" viewBox="0 0 22 22" fill="none" xmlns="http://www.w3.org/2000/svg">
<g id="Section &#226;&#134;&#146; List &#226;&#134;&#146; Item &#226;&#134;&#146; Link &#226;&#134;&#146; SVG">
<path id="Vector" d="M11.13 5.64658C8.14816 5.64658 5.72414 8.07061 5.72004 11.0524C5.72004 12.0737 6.00715 13.0704 6.54855 13.9276L6.6757 14.1327L6.13019 16.1261L8.17687 15.5888L8.37375 15.7077C9.20226 16.1999 10.1538 16.4624 11.1259 16.4624H11.13C14.1077 16.4624 16.5974 14.0384 16.5974 11.0565C16.5974 9.61279 15.9739 8.25518 14.9527 7.23389C13.9273 6.2085 12.5737 5.64658 11.13 5.64658ZM14.3087 13.3739C14.1734 13.7554 13.5253 14.0999 13.2136 14.145C12.6968 14.2229 12.2948 14.1819 11.2653 13.739C9.63703 13.0335 8.57062 11.3929 8.48859 11.2862C8.40656 11.1796 7.82414 10.4044 7.82414 9.60459C7.82414 8.80479 8.2425 8.41104 8.39426 8.24697C8.54191 8.08291 8.71828 8.04189 8.82902 8.04189C8.93566 8.04189 9.0464 8.04189 9.14074 8.046C9.23918 8.0501 9.37453 8.00908 9.50578 8.3249C9.64113 8.64893 9.96515 9.44873 10.0062 9.53076C10.0472 9.61279 10.0759 9.70713 10.0185 9.81377C9.70675 10.4372 9.37453 10.4126 9.54269 10.6997C10.1702 11.7784 10.7978 12.1517 11.7534 12.6315C11.9175 12.7136 12.0118 12.7013 12.1062 12.5905C12.2005 12.4839 12.5122 12.1147 12.6189 11.9548C12.7255 11.7907 12.8362 11.8194 12.9839 11.8728C13.1316 11.9261 13.9314 12.3198 14.0954 12.4019C14.2595 12.4839 14.3661 12.5249 14.4071 12.5905C14.4441 12.6685 14.4441 12.9966 14.3087 13.3739ZM18.3487 1.92236H3.91125C2.82433 1.92236 1.9425 2.8042 1.9425 3.89111V18.3286C1.9425 19.4155 2.82433 20.2974 3.91125 20.2974H18.3487C19.4357 20.2974 20.3175 19.4155 20.3175 18.3286V3.89111C20.3175 2.8042 19.4357 1.92236 18.3487 1.92236ZM11.1259 17.5575C10.0349 17.5575 8.96437 17.2827 8.01691 16.7659L4.5675 17.6724L5.49035 14.3009C4.92023 13.3165 4.62082 12.1968 4.62082 11.0483C4.62492 7.46357 7.54113 4.54736 11.1259 4.54736C12.865 4.54736 14.4974 5.22412 15.7278 6.45459C16.9542 7.68506 17.6925 9.31748 17.6925 11.0565C17.6925 14.6413 14.7107 17.5575 11.1259 17.5575Z" fill="#4054B2"/>
</g>
</svg>
