<svg width="22" height="22" viewBox="0 0 22 22" fill="none" xmlns="http://www.w3.org/2000/svg">
<g id="Section &#226;&#134;&#146; List &#226;&#134;&#146; Item &#226;&#134;&#146; Link &#226;&#134;&#146; SVG" clip-path="url(#clip0_585_430)">
<path id="Vector" d="M21.2321 8.43564C21.3921 8.3085 21.63 8.42744 21.63 8.62842V17.0161C21.63 18.103 20.7482 18.9849 19.6612 18.9849H2.59875C1.51183 18.9849 0.629997 18.103 0.629997 17.0161V8.63252C0.629997 8.42744 0.863786 8.3126 1.02785 8.43975C1.9466 9.15342 3.16476 10.0599 7.34836 13.0991C8.21379 13.7308 9.67394 15.0597 11.13 15.0515C12.5943 15.0638 14.0831 13.7062 14.9157 13.0991C19.0993 10.0599 20.3134 9.14932 21.2321 8.43564ZM11.13 13.7349C12.0816 13.7513 13.4515 12.5372 14.1405 12.0368C19.5833 8.08701 19.9976 7.74248 21.2527 6.75811C21.4905 6.57353 21.63 6.28643 21.63 5.98291V5.20361C21.63 4.1167 20.7482 3.23486 19.6612 3.23486H2.59875C1.51183 3.23486 0.629997 4.1167 0.629997 5.20361V5.98291C0.629997 6.28643 0.76945 6.56943 1.00734 6.75811C2.26242 7.73838 2.67668 8.08701 8.11945 12.0368C8.80851 12.5372 10.1784 13.7513 11.13 13.7349Z" fill="#4054B2"/>
</g>
<defs>
<clipPath id="clip0_585_430">
<rect width="21" height="21" fill="white" transform="translate(0.629997 0.609863)"/>
</clipPath>
</defs>
</svg>
