<svg width="22" height="22" viewBox="0 0 22 22" fill="none" xmlns="http://www.w3.org/2000/svg">
<g id="Section &#226;&#134;&#146; List &#226;&#134;&#146; Item &#226;&#134;&#146; Link &#226;&#134;&#146; SVG" clip-path="url(#clip0_585_436)">
<path id="Vector" d="M11.13 11.1099C14.0298 11.1099 16.38 8.75967 16.38 5.85986C16.38 2.96006 14.0298 0.609863 11.13 0.609863C8.23019 0.609863 5.88 2.96006 5.88 5.85986C5.88 8.75967 8.23019 11.1099 11.13 11.1099ZM14.805 12.4224H14.12C13.2095 12.8407 12.1964 13.0786 11.13 13.0786C10.0636 13.0786 9.05461 12.8407 8.13996 12.4224H7.455C4.41164 12.4224 1.9425 14.8915 1.9425 17.9349V19.6411C1.9425 20.728 2.82433 21.6099 3.91125 21.6099H18.3487C19.4357 21.6099 20.3175 20.728 20.3175 19.6411V17.9349C20.3175 14.8915 17.8484 12.4224 14.805 12.4224Z" fill="#4054B2"/>
</g>
<defs>
<clipPath id="clip0_585_436">
<rect width="21" height="21" fill="white" transform="translate(0.629997 0.609863)"/>
</clipPath>
</defs>
</svg>
