<svg width="27" height="24" viewBox="0 0 27 24" fill="none" xmlns="http://www.w3.org/2000/svg">
<g id="Facebook / Negative" clip-path="url(#clip0_802_280)">
<path id="Vector" d="M26.123 12.0359C26.123 5.46306 20.3132 0.134766 13.1465 0.134766C5.97972 0.134766 0.169922 5.46306 0.169922 12.0359C0.169922 17.9759 4.91524 22.8996 11.1189 23.7924V15.476H7.82407V12.0359H11.1189V9.4139C11.1189 6.43119 13.0563 4.78363 16.0203 4.78363C17.4396 4.78363 18.9251 5.01607 18.9251 5.01607V7.94486H17.2888C15.6769 7.94486 15.1741 8.86231 15.1741 9.8044V12.0359H18.773L18.1977 15.476H15.1741V23.7924C21.3777 22.8996 26.123 17.9759 26.123 12.0359Z" fill="#1D2130"/>
</g>
<defs>
<clipPath id="clip0_802_280">
<rect width="25.9531" height="23.8022" fill="white" transform="translate(0.169922 0.134766)"/>
</clipPath>
</defs>
</svg>
