<svg width="27" height="24" viewBox="0 0 27 24" fill="none" xmlns="http://www.w3.org/2000/svg">
<g id="LinkedIn / Negative" clip-path="url(#clip0_802_284)">
<g id="Group">
<path id="Vector" d="M25.0144 0.134766H2.89849C1.83908 0.134766 0.982422 0.901828 0.982422 1.8502V22.2169C0.982422 23.1652 1.83908 23.9369 2.89849 23.9369H25.0144C26.0738 23.9369 26.9355 23.1652 26.9355 22.2215V1.8502C26.9355 0.901828 26.0738 0.134766 25.0144 0.134766ZM8.68219 20.4178H4.82977V9.05593H8.68219V20.4178ZM6.75598 7.50786C5.51915 7.50786 4.52056 6.59204 4.52056 5.46236C4.52056 4.33269 5.51915 3.41686 6.75598 3.41686C7.98774 3.41686 8.98633 4.33269 8.98633 5.46236C8.98633 6.58739 7.98774 7.50786 6.75598 7.50786ZM23.0983 20.4178H19.251V14.8949C19.251 13.5793 19.2256 11.8824 17.2487 11.8824C15.2465 11.8824 14.9424 13.3189 14.9424 14.8019V20.4178H11.1001V9.05593H14.7903V10.6087H14.841C15.353 9.71607 16.6101 8.77236 18.4805 8.77236C22.3785 8.77236 23.0983 11.1247 23.0983 14.1836V20.4178Z" fill="#1D2130"/>
</g>
</g>
<defs>
<clipPath id="clip0_802_284">
<rect width="25.9531" height="23.8022" fill="white" transform="translate(0.982422 0.134766)"/>
</clipPath>
</defs>
</svg>
