<svg width="27" height="24" viewBox="0 0 27 24" fill="none" xmlns="http://www.w3.org/2000/svg">
<g id="Twitter / Negative" clip-path="url(#clip0_802_282)">
<path id="Vector" d="M8.24076 21.7057C18.032 21.7057 23.3889 14.2643 23.3889 7.81304C23.3889 7.60384 23.3838 7.39 23.3737 7.1808C24.4157 6.48964 25.315 5.63355 26.0293 4.65275C25.0588 5.04876 24.0284 5.30739 22.9732 5.41981C24.0842 4.80906 24.9161 3.84959 25.3146 2.71928C24.2694 3.28735 23.1264 3.68808 21.9346 3.90428C21.1316 3.12173 20.0698 2.60359 18.9135 2.42997C17.7572 2.25635 16.5707 2.43691 15.5375 2.94375C14.5043 3.45058 13.6819 4.25546 13.1975 5.23393C12.7131 6.2124 12.5936 7.30998 12.8576 8.35696C10.7413 8.25956 8.67091 7.75537 6.78071 6.87706C4.89051 5.99875 3.22266 4.76594 1.88529 3.25855C1.20556 4.33335 0.997569 5.60518 1.30357 6.81556C1.60957 8.02595 2.40661 9.08407 3.5327 9.77486C2.6873 9.75025 1.86042 9.5415 1.12038 9.16586V9.2263C1.11962 10.3542 1.54479 11.4476 2.32362 12.3205C3.10244 13.1934 4.18685 13.7921 5.39251 14.0146C4.60938 14.2111 3.78745 14.2398 2.99032 14.0983C3.33054 15.0683 3.99247 15.9167 4.88374 16.5251C5.77501 17.1335 6.85115 17.4715 7.96197 17.492C6.07613 18.8506 3.74656 19.5875 1.34848 19.584C0.923203 19.5834 0.498342 19.5595 0.0761719 19.5124C2.51237 20.9458 5.34631 21.7071 8.24076 21.7057Z" fill="#1D2130"/>
</g>
<defs>
<clipPath id="clip0_802_282">
<rect width="25.9531" height="23.8022" fill="white" transform="translate(0.0761719 0.134766)"/>
</clipPath>
</defs>
</svg>
