<svg width="86" height="86" viewBox="0 0 86 86" fill="none" xmlns="http://www.w3.org/2000/svg">
<path d="M72.5625 0H13.4375C6.01617 0 0 6.01617 0 13.4375V72.5625C0 79.9838 6.01617 86 13.4375 86H72.5625C79.9838 86 86 79.9838 86 72.5625V13.4375C86 6.01617 79.9838 0 72.5625 0Z" fill="#1877F2"/>
<path d="M64.5 43C64.5 31.175 54.825 21.5 43 21.5C31.175 21.5 21.5 31.175 21.5 43C21.5 53.75 29.2937 62.6187 39.5063 64.2313V49.1812H34.1312V43H39.5063V38.1625C39.5063 32.7875 42.7313 29.8313 47.5688 29.8313C49.9875 29.8313 52.4062 30.3688 52.4062 30.3688V35.7438H49.7188C47.0312 35.7438 46.225 37.3562 46.225 38.9688V43H52.1375L51.0625 49.1812H45.9563V64.5C56.7062 62.8875 64.5 53.75 64.5 43Z" fill="white"/>
</svg>
