<svg width="86" height="86" viewBox="0 0 86 86" fill="none" xmlns="http://www.w3.org/2000/svg">
<path d="M72.5625 0H13.4375C6.01617 0 0 6.01617 0 13.4375V72.5625C0 79.9838 6.01617 86 13.4375 86H72.5625C79.9838 86 86 79.9838 86 72.5625V13.4375C86 6.01617 79.9838 0 72.5625 0Z" fill="#F00073"/>
<path d="M43.0001 24.7251C48.9126 24.7251 49.7188 24.7251 52.1376 24.7251C54.2876 24.7251 55.3626 25.2626 56.1688 25.5313C57.2438 26.0688 58.0501 26.3376 58.8563 27.1438C59.6626 27.9501 60.2001 28.7563 60.4688 29.8313C60.7376 30.6376 61.0063 31.7126 61.2751 33.8626C61.2751 36.2813 61.2751 36.8188 61.2751 43.0001C61.2751 49.1813 61.2751 49.7188 61.2751 52.1376C61.2751 54.2876 60.7376 55.3626 60.4688 56.1688C59.9313 57.2438 59.6626 58.0501 58.8563 58.8563C58.0501 59.6626 57.2438 60.2001 56.1688 60.4688C55.3626 60.7376 54.2876 61.0063 52.1376 61.2751C49.7188 61.2751 49.1813 61.2751 43.0001 61.2751C36.8188 61.2751 36.2813 61.2751 33.8626 61.2751C31.7126 61.2751 30.6376 60.7376 29.8313 60.4688C28.7563 59.9313 27.9501 59.6626 27.1438 58.8563C26.3376 58.0501 25.8001 57.2438 25.5313 56.1688C25.2626 55.3626 24.9938 54.2876 24.7251 52.1376C24.7251 49.7188 24.7251 49.1813 24.7251 43.0001C24.7251 36.8188 24.7251 36.2813 24.7251 33.8626C24.7251 31.7126 25.2626 30.6376 25.5313 29.8313C26.0688 28.7563 26.3376 27.9501 27.1438 27.1438C27.9501 26.3376 28.7563 25.8001 29.8313 25.5313C30.6376 25.2626 31.7126 24.9938 33.8626 24.7251C36.2813 24.7251 37.0876 24.7251 43.0001 24.7251ZM43.0001 20.6938C36.8188 20.6938 36.2813 20.6938 33.8626 20.6938C31.4438 20.6938 29.8313 21.2313 28.4876 21.7688C27.1438 22.3063 25.8001 23.1126 24.4563 24.4563C23.1126 25.8001 22.5751 26.8751 21.7688 28.4876C21.2313 29.8313 20.9626 31.4438 20.6938 33.8626C20.6938 36.2813 20.6938 37.0876 20.6938 43.0001C20.6938 49.1813 20.6938 49.7188 20.6938 52.1376C20.6938 54.5563 21.2313 56.1688 21.7688 57.5126C22.3063 58.8563 23.1126 60.2001 24.4563 61.5438C25.8001 62.8876 26.8751 63.4251 28.4876 64.2313C29.8313 64.7689 31.4438 65.0376 33.8626 65.3063C36.2813 65.3063 37.0876 65.3063 43.0001 65.3063C48.9126 65.3063 49.7188 65.3063 52.1376 65.3063C54.5563 65.3063 56.1688 64.7689 57.5126 64.2313C58.8563 63.6938 60.2001 62.8876 61.5438 61.5438C62.8876 60.2001 63.4251 59.1251 64.2313 57.5126C64.7689 56.1688 65.0376 54.5563 65.3063 52.1376C65.3063 49.7188 65.3063 48.9126 65.3063 43.0001C65.3063 37.0876 65.3063 36.2813 65.3063 33.8626C65.3063 31.4438 64.7689 29.8313 64.2313 28.4876C63.6938 27.1438 62.8876 25.8001 61.5438 24.4563C60.2001 23.1126 59.1251 22.5751 57.5126 21.7688C56.1688 21.2313 54.5563 20.9626 52.1376 20.6938C49.7188 20.6938 49.1813 20.6938 43.0001 20.6938Z" fill="white"/>
<path d="M43.0001 31.4438C36.5501 31.4438 31.4438 36.5501 31.4438 43.0001C31.4438 49.4501 36.5501 54.5563 43.0001 54.5563C49.4501 54.5563 54.5563 49.4501 54.5563 43.0001C54.5563 36.5501 49.4501 31.4438 43.0001 31.4438ZM43.0001 50.5251C38.9688 50.5251 35.4751 47.3001 35.4751 43.0001C35.4751 38.9688 38.7001 35.4751 43.0001 35.4751C47.0313 35.4751 50.5251 38.7001 50.5251 43.0001C50.5251 47.0313 47.0313 50.5251 43.0001 50.5251Z" fill="white"/>
<path d="M54.8251 33.8626C56.3094 33.8626 57.5126 32.6594 57.5126 31.1751C57.5126 29.6908 56.3094 28.4876 54.8251 28.4876C53.3408 28.4876 52.1376 29.6908 52.1376 31.1751C52.1376 32.6594 53.3408 33.8626 54.8251 33.8626Z" fill="white"/>
</svg>
