<svg width="86" height="86" viewBox="0 0 86 86" fill="none" xmlns="http://www.w3.org/2000/svg">
<path d="M72.5625 0H13.4375C6.01617 0 0 6.01617 0 13.4375V72.5625C0 79.9838 6.01617 86 13.4375 86H72.5625C79.9838 86 86 79.9838 86 72.5625V13.4375C86 6.01617 79.9838 0 72.5625 0Z" fill="#2867B2"/>
<path d="M31.175 64.5H22.0375V35.7438H31.175V64.5ZM26.6063 31.7125C23.65 31.7125 21.5 29.5625 21.5 26.6062C21.5 23.65 23.9188 21.5 26.6063 21.5C29.5625 21.5 31.7125 23.65 31.7125 26.6062C31.7125 29.5625 29.5625 31.7125 26.6063 31.7125ZM64.5 64.5H55.3625V48.9125C55.3625 44.3438 53.4812 43 50.7937 43C48.1062 43 45.4187 45.15 45.4187 49.1812V64.5H36.2812V35.7438H44.8812V39.775C45.6875 37.8938 48.9125 34.9375 53.4812 34.9375C58.5875 34.9375 63.9625 37.8937 63.9625 46.7625V64.5H64.5Z" fill="white"/>
</svg>
