<svg width="86" height="86" viewBox="0 0 86 86" fill="none" xmlns="http://www.w3.org/2000/svg">
<path d="M72.5625 0H13.4375C6.01617 0 0 6.01617 0 13.4375V72.5625C0 79.9838 6.01617 86 13.4375 86H72.5625C79.9838 86 86 79.9838 86 72.5625V13.4375C86 6.01617 79.9838 0 72.5625 0Z" fill="#E60023"/>
<path d="M43 21.5C31.175 21.5 21.5 31.175 21.5 43C21.5 51.8687 26.875 59.3937 34.4 62.6187C34.4 61.0062 34.4 59.3937 34.6687 57.7812C35.2062 55.9 37.3562 45.9563 37.3562 45.9563C37.3562 45.9563 36.55 44.6125 36.55 42.4625C36.55 39.2375 38.4313 36.8187 40.5813 36.8187C42.4625 36.8187 43.5375 38.1625 43.5375 40.0437C43.5375 41.925 42.1938 44.8813 41.6562 47.5688C41.1187 49.7188 42.7313 51.6 45.15 51.6C49.1813 51.6 51.8688 46.4937 51.8688 40.0437C51.8688 35.2062 48.6438 31.7125 43 31.7125C36.55 31.7125 32.5188 36.55 32.5188 41.925C32.5188 43.8062 33.0563 45.15 33.8625 46.225C34.1313 46.7625 34.4 46.7625 34.1312 47.3C34.1312 47.5688 33.8625 48.6438 33.5938 48.9125C33.325 49.45 33.0563 49.7188 32.5188 49.45C29.5625 48.1062 28.2188 44.8813 28.2188 41.1187C28.2188 34.9375 33.325 27.6813 43.5375 27.6813C51.8687 27.6813 57.2437 33.5937 57.2437 40.0437C57.2437 48.375 52.675 54.825 45.6875 54.825C43.2688 54.825 41.1187 53.4812 40.3125 52.1375C40.3125 52.1375 38.9687 56.975 38.7 58.05C38.1625 59.6625 37.3563 61.275 36.55 62.6187C38.4313 63.1562 40.5812 63.425 42.7312 63.425C54.5562 63.425 64.2312 53.75 64.2312 41.925C64.5 31.175 54.825 21.5 43 21.5Z" fill="white"/>
</svg>
