<svg width="86" height="86" viewBox="0 0 86 86" fill="none" xmlns="http://www.w3.org/2000/svg">
<path d="M72.5625 0H13.4375C6.01617 0 0 6.01617 0 13.4375V72.5625C0 79.9838 6.01617 86 13.4375 86H72.5625C79.9838 86 86 79.9838 86 72.5625V13.4375C86 6.01617 79.9838 0 72.5625 0Z" fill="#1DA1F2"/>
<path d="M64.5 29.5625C62.8875 30.3688 61.275 30.6375 59.3937 30.9062C61.275 29.8313 62.6188 28.2187 63.1562 26.0687C61.5438 27.1437 59.6625 27.6813 57.5125 28.2188C55.9 26.6062 53.4813 25.5312 51.0625 25.5312C45.4188 25.5312 41.1187 30.9062 42.4625 36.2812C35.2063 36.0125 28.7562 32.5188 24.1875 27.1438C21.7688 31.175 23.1125 36.2812 26.875 38.9688C25.5312 38.9688 24.1875 38.4313 22.8438 37.8938C22.8438 41.925 25.8 45.6875 29.8313 46.7625C28.4875 47.0312 27.1438 47.3 25.8 47.0312C26.875 50.525 30.1 53.2125 34.1312 53.2125C30.9062 55.6312 26.0687 56.975 21.5 56.4375C25.5312 58.8563 30.1 60.4688 34.9375 60.4688C51.3312 60.4688 60.4687 46.7625 59.9312 34.1312C61.8125 33.0562 63.425 31.4437 64.5 29.5625Z" fill="white"/>
</svg>
