<svg width="86" height="86" viewBox="0 0 86 86" fill="none" xmlns="http://www.w3.org/2000/svg">
<path d="M72.5625 0H13.4375C6.01617 0 0 6.01617 0 13.4375V72.5625C0 79.9838 6.01617 86 13.4375 86H72.5625C79.9838 86 86 79.9838 86 72.5625V13.4375C86 6.01617 79.9838 0 72.5625 0Z" fill="#FF0000"/>
<path d="M63.425 32.5187C62.8875 30.6375 61.5438 29.2937 59.6625 28.7562C56.4375 27.95 42.7312 27.95 42.7312 27.95C42.7312 27.95 29.2938 27.95 25.8 28.7562C23.9188 29.2937 22.575 30.6375 22.0375 32.5187C21.5 36.0125 21.5 43 21.5 43C21.5 43 21.5 49.9875 22.3063 53.4812C22.8438 55.3625 24.1875 56.7062 26.0687 57.2437C29.2937 58.0499 43 58.05 43 58.05C43 58.05 56.4375 58.0499 59.9312 57.2437C61.8125 56.7062 63.1563 55.3625 63.6938 53.4812C64.5 49.9875 64.5 43 64.5 43C64.5 43 64.5 36.0125 63.425 32.5187ZM38.7 49.45V36.55L49.9875 43L38.7 49.45Z" fill="white"/>
</svg>
