<svg width="17" height="15" viewBox="0 0 17 15" fill="none" xmlns="http://www.w3.org/2000/svg">
<path d="M3.45664 1.11484V5.70151L10.4966 12.7415L15.03 8.15484L8.0433 1.11484H3.45664ZM2.49664 1.11484C2.49664 0.865954 2.58553 0.643732 2.7633 0.448176C2.94108 0.252621 3.17219 0.154843 3.45664 0.154843H8.0433C8.32775 0.154843 8.55886 0.243732 8.73664 0.42151L15.7766 7.40818C15.9544 7.62151 16.0433 7.8704 16.0433 8.15484C16.0433 8.43929 15.9544 8.6704 15.7766 8.84818L11.19 13.4348C10.9766 13.6126 10.7366 13.7015 10.47 13.7015C10.2033 13.7015 9.9633 13.6126 9.74997 13.4348L2.7633 6.44818C2.58553 6.23484 2.47886 5.98595 2.4433 5.70151L2.49664 1.11484ZM5.9633 4.15484C5.82108 4.15484 5.70553 4.10151 5.61664 3.99484C5.52775 3.88818 5.4833 3.76373 5.4833 3.62151C5.4833 3.47929 5.52775 3.36373 5.61664 3.27484C5.70553 3.18596 5.82108 3.14151 5.9633 3.14151C6.10553 3.14151 6.22997 3.18596 6.33664 3.27484C6.4433 3.36373 6.48775 3.47929 6.46997 3.62151C6.45219 3.76373 6.39886 3.88818 6.30997 3.99484C6.22108 4.10151 6.10553 4.15484 5.9633 4.15484ZM5.9633 5.11484C6.38997 5.1504 6.74553 5.01707 7.02997 4.71484C7.31442 4.41262 7.45664 4.05707 7.45664 3.64818C7.45664 3.23929 7.31442 2.88373 7.02997 2.58151C6.74553 2.27929 6.38997 2.12818 5.9633 2.12818C5.53664 2.12818 5.18108 2.27929 4.89664 2.58151C4.61219 2.88373 4.46997 3.23929 4.46997 3.64818C4.46997 4.05707 4.61219 4.40373 4.89664 4.68818C5.18108 4.97262 5.53664 5.11484 5.9633 5.11484ZM1.4833 6.23484C1.4833 6.51929 1.57219 6.7504 1.74997 6.92818L9.21664 14.3948L9.1633 14.4482C8.98553 14.626 8.75442 14.7148 8.46997 14.7148C8.18553 14.7148 7.95442 14.626 7.77664 14.4482L0.736637 7.40818C0.55886 7.2304 0.469971 6.99929 0.469971 6.71484V2.12818C0.469971 1.84373 0.567748 1.60373 0.763304 1.40818C0.95886 1.21262 1.19886 1.11484 1.4833 1.11484V6.23484Z" fill="black"/>
</svg>
