<svg width="16" height="15" viewBox="0 0 16 15" fill="none" xmlns="http://www.w3.org/2000/svg">
<path d="M5.01333 6.97911C5.01333 7.26356 4.91556 7.50356 4.72 7.69911C4.52444 7.89467 4.28444 7.99245 4 7.99245C3.71556 7.99245 3.47556 7.89467 3.28 7.69911C3.08444 7.50356 2.98667 7.26356 2.98667 6.97911C2.98667 6.69467 3.08444 6.45467 3.28 6.25911C3.47556 6.06356 3.71556 5.96578 4 5.96578C4.28444 5.96578 4.52444 6.06356 4.72 6.25911C4.91556 6.45467 5.01333 6.69467 5.01333 6.97911ZM9.01333 6.97911C9.01333 7.26356 8.91556 7.50356 8.72 7.69911C8.52444 7.89467 8.28444 7.99245 8 7.99245C7.71556 7.99245 7.47556 7.89467 7.28 7.69911C7.08444 7.50356 6.98667 7.26356 6.98667 6.97911C6.98667 6.69467 7.08444 6.45467 7.28 6.25911C7.47556 6.06356 7.71556 5.96578 8 5.96578C8.28444 5.96578 8.52444 6.06356 8.72 6.25911C8.91556 6.45467 9.01333 6.69467 9.01333 6.97911ZM12 7.99245C12.2844 7.99245 12.5244 7.89467 12.72 7.69911C12.9156 7.50356 13.0133 7.26356 13.0133 6.97911C13.0133 6.69467 12.9156 6.45467 12.72 6.25911C12.5244 6.06356 12.2844 5.96578 12 5.96578C11.7156 5.96578 11.4756 6.06356 11.28 6.25911C11.0844 6.45467 10.9867 6.69467 10.9867 6.97911C10.9867 7.26356 11.0844 7.50356 11.28 7.69911C11.4756 7.89467 11.7156 7.99245 12 7.99245ZM2.18667 14.7658C3.60889 14.4813 4.76444 14.1258 5.65333 13.6991C6.43556 13.8769 7.21778 13.9658 8 13.9658C9.45778 13.9658 10.8 13.6547 12.0267 13.0324C13.2533 12.4102 14.2222 11.5658 14.9333 10.4991C15.6444 9.43245 16 8.25911 16 6.97911C16 5.69911 15.6444 4.52578 14.9333 3.45911C14.2222 2.39245 13.2533 1.548 12.0267 0.925781C10.8 0.303558 9.45778 -0.00755215 8 -0.00755215C6.54222 -0.00755215 5.2 0.303558 3.97333 0.925781C2.74667 1.548 1.77778 2.39245 1.06667 3.45911C0.355556 4.52578 0 5.69911 0 6.97911C0 7.83245 0.168889 8.65911 0.506667 9.45911C0.844444 10.2591 1.33333 10.9613 1.97333 11.5658C1.90222 12.3836 1.72444 13.1658 1.44 13.9124L1.17333 14.5524C1.13778 14.6236 1.15556 14.7036 1.22667 14.7924C1.29778 14.8813 1.38667 14.9258 1.49333 14.9258L2.18667 14.7658ZM2.98667 11.6724C2.98667 11.3524 2.88 11.0858 2.66667 10.8724C2.13333 10.3391 1.72444 9.73467 1.44 9.05911C1.15556 8.38356 1.01333 7.69023 1.01333 6.97911C1.01333 5.91245 1.31556 4.91689 1.92 3.99245C2.52444 3.068 3.36 2.33022 4.42667 1.77911C5.49333 1.228 6.68444 0.952448 8 0.952448C9.31556 0.952448 10.5067 1.228 11.5733 1.77911C12.64 2.33022 13.4756 3.068 14.08 3.99245C14.6844 4.91689 14.9867 5.91245 14.9867 6.97911C14.9867 8.04578 14.6844 9.04134 14.08 9.96578C13.4756 10.8902 12.64 11.628 11.5733 12.1791C10.5067 12.7302 9.31556 13.0058 8 13.0058C7.28889 13.0058 6.59556 12.8991 5.92 12.6858C5.67111 12.6502 5.44 12.6858 5.22667 12.7924C4.51556 13.148 3.62667 13.4502 2.56 13.6991C2.77333 13.0236 2.91556 12.348 2.98667 11.6724Z" fill="black"/>
</svg>
