<svg width="17" height="17" viewBox="0 0 17 17" fill="none" xmlns="http://www.w3.org/2000/svg">
<path d="M8.82996 4.49949C8.82996 4.35727 8.78551 4.23283 8.69662 4.12616C8.60773 4.01949 8.49218 3.96616 8.34996 3.96616C8.20773 3.96616 8.08329 4.01949 7.97662 4.12616C7.86996 4.23283 7.81662 4.35727 7.81662 4.49949V9.99283C7.81662 10.1706 7.90551 10.3128 8.08329 10.4195L11.6033 12.3928C11.71 12.4639 11.8255 12.4817 11.95 12.4462C12.0744 12.4106 12.1722 12.3306 12.2433 12.2062C12.3144 12.0817 12.3322 11.9573 12.2966 11.8328C12.2611 11.7084 12.19 11.6106 12.0833 11.5395L8.82996 9.67283V4.49949ZM8.82996 16.9795C10.2877 16.9795 11.63 16.6239 12.8566 15.9128C14.0833 15.2017 15.0522 14.2328 15.7633 13.0062C16.4744 11.7795 16.83 10.4373 16.83 8.97949C16.83 7.52171 16.4744 6.17949 15.7633 4.95283C15.0522 3.72616 14.0833 2.75727 12.8566 2.04616C11.63 1.33505 10.2877 0.979492 8.82996 0.979492C7.37218 0.979492 6.02996 1.33505 4.80329 2.04616C3.57662 2.75727 2.60773 3.72616 1.89662 4.95283C1.18551 6.17949 0.829956 7.52171 0.829956 8.97949C0.829956 10.4373 1.18551 11.7795 1.89662 13.0062C2.60773 14.2328 3.57662 15.2017 4.80329 15.9128C6.02996 16.6239 7.37218 16.9795 8.82996 16.9795ZM15.8166 8.97949C15.8166 10.2595 15.5055 11.4328 14.8833 12.4995C14.2611 13.5662 13.4166 14.4106 12.35 15.0328C11.2833 15.655 10.11 15.9662 8.82996 15.9662C7.54996 15.9662 6.37662 15.655 5.30996 15.0328C4.24329 14.4106 3.39884 13.5662 2.77662 12.4995C2.1544 11.4328 1.84329 10.2595 1.84329 8.97949C1.84329 7.69949 2.1544 6.52616 2.77662 5.45949C3.39884 4.39283 4.24329 3.54838 5.30996 2.92616C6.37662 2.30394 7.54996 1.99283 8.82996 1.99283C10.11 1.99283 11.2833 2.30394 12.35 2.92616C13.4166 3.54838 14.2611 4.39283 14.8833 5.45949C15.5055 6.52616 15.8166 7.69949 15.8166 8.97949Z" fill="black"/>
</svg>
