<svg width="19" height="19" viewBox="0 0 19 19" fill="none" xmlns="http://www.w3.org/2000/svg">
<path d="M18.2 9.99945C18.2 8.35945 17.8 6.84945 17 5.46945C16.2 4.08945 15.11 2.98945 13.73 2.16945C12.35 1.34945 10.84 0.939453 9.20001 0.939453C7.56001 0.939453 6.05001 1.34945 4.67001 2.16945C3.29001 2.98945 2.20001 4.08945 1.40001 5.46945C0.600012 6.84945 0.200012 8.35945 0.200012 9.99945C0.200012 11.4795 0.530012 12.8595 1.19001 14.1395C1.85001 15.4195 2.76001 16.4795 3.92001 17.3195C5.08001 18.1595 6.38001 18.6995 7.82001 18.9395V12.6395H5.48001V9.99945H7.82001V8.01945C7.82001 6.89945 8.12001 6.02945 8.72001 5.40945C9.32001 4.78945 10.14 4.47945 11.18 4.47945C11.58 4.47945 12.04 4.49945 12.56 4.53945L13.22 4.65945V6.87945H12.08C11.56 6.87945 11.18 7.00945 10.94 7.26945C10.7 7.52945 10.58 7.87945 10.58 8.31945V9.99945H13.1L12.68 12.6395H10.58V18.9395C12.02 18.6995 13.32 18.1595 14.48 17.3195C15.64 16.4795 16.55 15.4195 17.21 14.1395C17.87 12.8595 18.2 11.4795 18.2 9.99945Z" fill="black"/>
</svg>
