<svg width="16" height="14" viewBox="0 0 16 14" fill="none" xmlns="http://www.w3.org/2000/svg">
<path d="M0.533332 3.03328L0.479998 2.12661C0.479998 1.59328 0.675554 1.13106 1.06667 0.739947C1.45778 0.348837 1.93778 0.153281 2.50666 0.153281H6.18667C6.72 0.153281 7.18222 0.348837 7.57333 0.739947L8.42667 1.53995C8.81778 1.93106 9.28 2.12661 9.81333 2.12661H13.8133C14.3822 2.12661 14.8711 2.34884 15.28 2.79328C15.6889 3.23773 15.8578 3.74439 15.7867 4.31328L15.1467 11.2999C15.1111 11.8333 14.9067 12.2688 14.5333 12.6066C14.16 12.9444 13.7067 13.1133 13.1733 13.1133H2.82667C2.29333 13.1133 1.84 12.9444 1.46667 12.6066C1.09333 12.2688 0.888887 11.8333 0.853332 11.2999L0.213332 4.31328C0.177776 3.85106 0.284443 3.42439 0.533332 3.03328ZM2.18667 3.13995C1.90222 3.13995 1.66222 3.24661 1.46667 3.45995C1.27111 3.67328 1.17333 3.92217 1.17333 4.20661L1.81333 11.2466C1.84889 11.4955 1.96444 11.7088 2.16 11.8866C2.35555 12.0644 2.57778 12.1533 2.82667 12.1533H13.1733C13.4222 12.1533 13.6444 12.0644 13.84 11.8866C14.0356 11.7088 14.1511 11.4955 14.1867 11.2466L14.8267 4.20661C14.8267 3.92217 14.7289 3.67328 14.5333 3.45995C14.3378 3.24661 14.0978 3.13995 13.8133 3.13995H2.18667ZM6.88 1.43328C6.70222 1.21995 6.47111 1.11328 6.18667 1.11328H2.50666C2.22222 1.11328 1.98222 1.21106 1.78667 1.40661C1.59111 1.60217 1.49333 1.84217 1.49333 2.12661V2.23328C1.70667 2.16217 1.93778 2.12661 2.18667 2.12661H7.57333L6.88 1.43328Z" fill="black"/>
</svg>
