<svg width="19" height="19" viewBox="0 0 19 19" fill="none" xmlns="http://www.w3.org/2000/svg">
<path d="M0.609985 2.19945C0.609985 1.87945 0.739985 1.58945 0.999985 1.32945C1.25999 1.06945 1.56999 0.939453 1.92999 0.939453H17.29C17.65 0.939453 17.96 1.06945 18.22 1.32945C18.48 1.58945 18.61 1.87945 18.61 2.19945V17.6795C18.61 17.9995 18.48 18.2895 18.22 18.5495C17.96 18.8095 17.65 18.9395 17.29 18.9395H1.92999C1.56999 18.9395 1.25999 18.8095 0.999985 18.5495C0.739985 18.2895 0.609985 17.9995 0.609985 17.6795V2.19945ZM6.18999 15.9995V7.89945H3.48999V15.9995H6.18999ZM4.80999 6.75945C5.28999 6.75945 5.66999 6.62945 5.94999 6.36945C6.22999 6.10945 6.35999 5.77945 6.33999 5.37945C6.31999 4.97945 6.17999 4.63945 5.91999 4.35945C5.65999 4.07945 5.29999 3.93945 4.83999 3.93945C4.37999 3.93945 4.00999 4.07945 3.72999 4.35945C3.44999 4.63945 3.30999 4.97945 3.30999 5.37945C3.30999 5.77945 3.44999 6.10945 3.72999 6.36945C4.00999 6.62945 4.36999 6.75945 4.80999 6.75945ZM10.33 15.9995V11.4395C10.33 11.1595 10.37 10.9395 10.45 10.7795C10.53 10.5395 10.69 10.3195 10.93 10.1195C11.17 9.91945 11.47 9.81945 11.83 9.81945C12.31 9.81945 12.66 9.97945 12.88 10.2995C13.1 10.6195 13.21 11.0795 13.21 11.6795V15.9995H15.91V11.3195C15.91 10.1195 15.62 9.20945 15.04 8.58945C14.46 7.96945 13.71 7.65945 12.79 7.65945C12.15 7.65945 11.61 7.81945 11.17 8.13945C10.85 8.33945 10.57 8.63945 10.33 9.03945V7.89945H7.62999C7.66999 8.21945 7.66999 9.65945 7.62999 12.2195V15.9995H10.33Z" fill="black"/>
</svg>
