<svg width="19" height="19" viewBox="0 0 19 19" fill="none" xmlns="http://www.w3.org/2000/svg">
<path d="M9.41003 0.939453C7.73003 0.939453 6.48003 0.959454 5.66003 0.999453C4.84003 1.03945 4.13003 1.17945 3.53003 1.41945C2.93003 1.65945 2.40003 2.00945 1.94003 2.46945C1.48003 2.92945 1.13003 3.45945 0.890034 4.05945C0.650034 4.65945 0.510034 5.36945 0.470034 6.18945C0.430034 7.00945 0.410034 8.25945 0.410034 9.93945C0.410034 11.6195 0.430034 12.8695 0.470034 13.6895C0.510034 14.5095 0.650034 15.2195 0.890034 15.8195C1.13003 16.4195 1.48003 16.9495 1.94003 17.4095C2.40003 17.8695 2.93003 18.2195 3.53003 18.4595C4.13003 18.6995 4.84003 18.8395 5.66003 18.8795C6.48003 18.9195 7.73003 18.9395 9.41003 18.9395C11.09 18.9395 12.34 18.9195 13.16 18.8795C13.98 18.8395 14.69 18.6995 15.29 18.4595C15.89 18.2195 16.42 17.8695 16.88 17.4095C17.34 16.9495 17.69 16.4195 17.93 15.8195C18.17 15.2195 18.31 14.5095 18.35 13.6895C18.39 12.8695 18.41 11.6195 18.41 9.93945C18.41 8.25945 18.39 7.00945 18.35 6.18945C18.31 5.36945 18.17 4.65945 17.93 4.05945C17.69 3.45945 17.34 2.92945 16.88 2.46945C16.42 2.00945 15.89 1.65945 15.29 1.41945C14.69 1.17945 13.98 1.03945 13.16 0.999453C12.34 0.959454 11.09 0.939453 9.41003 0.939453ZM8.63003 2.55945H9.41003C11.09 2.55945 12.31 2.57945 13.07 2.61945C13.71 2.65945 14.24 2.75945 14.66 2.91945C15.08 3.07945 15.44 3.30945 15.74 3.60945C16.04 3.90945 16.27 4.26945 16.43 4.68945C16.59 5.10945 16.69 5.63945 16.73 6.27945C16.77 7.03945 16.79 8.25945 16.79 9.93945C16.79 11.6195 16.77 12.8395 16.73 13.5995C16.69 14.2395 16.59 14.7695 16.43 15.1895C16.27 15.6095 16.04 15.9695 15.74 16.2695C15.44 16.5695 15.08 16.7995 14.66 16.9595C14.24 17.1195 13.71 17.2195 13.07 17.2595C12.27 17.2995 11.05 17.3195 9.41003 17.3195C7.77003 17.3195 6.55003 17.2995 5.75003 17.2595C5.11003 17.2195 4.58003 17.1195 4.16003 16.9595C3.74003 16.7995 3.38003 16.5695 3.08003 16.2695C2.78003 15.9695 2.55003 15.6095 2.39003 15.1895C2.23003 14.7695 2.13003 14.2395 2.09003 13.5995C2.05003 12.7995 2.03003 11.5695 2.03003 9.90945C2.03003 8.24945 2.05003 7.03945 2.09003 6.27945C2.13003 5.63945 2.23003 5.10945 2.39003 4.68945C2.55003 4.26945 2.78003 3.90945 3.08003 3.60945C3.38003 3.30945 3.74003 3.07945 4.16003 2.91945C4.58003 2.75945 5.13003 2.65945 5.81003 2.61945C6.49003 2.57945 7.43003 2.55945 8.63003 2.55945ZM14.21 4.05945C13.93 4.05945 13.68 4.15945 13.46 4.35945C13.24 4.55945 13.13 4.80945 13.13 5.10945C13.13 5.40945 13.24 5.66945 13.46 5.88945C13.68 6.10945 13.94 6.21945 14.24 6.21945C14.54 6.21945 14.79 6.10945 14.99 5.88945C15.19 5.66945 15.29 5.40945 15.29 5.10945C15.29 4.80945 15.19 4.55945 14.99 4.35945C14.79 4.15945 14.53 4.05945 14.21 4.05945ZM9.41003 5.31945C8.57003 5.31945 7.79003 5.51945 7.07003 5.91945C6.35003 6.31945 5.78003 6.87945 5.36003 7.59945C4.94003 8.31945 4.73003 9.09945 4.73003 9.93945C4.73003 10.7795 4.94003 11.5595 5.36003 12.2795C5.78003 12.9995 6.35003 13.5595 7.07003 13.9595C7.79003 14.3595 8.57003 14.5595 9.41003 14.5595C10.25 14.5595 11.02 14.3495 11.72 13.9295C12.42 13.5095 12.97 12.9495 13.37 12.2495C13.77 11.5495 13.97 10.7795 13.97 9.93945C13.97 9.09945 13.77 8.32945 13.37 7.62945C12.97 6.92945 12.42 6.36945 11.72 5.94945C11.02 5.52945 10.25 5.31945 9.41003 5.31945ZM9.41003 6.93945C9.93003 6.93945 10.43 7.06945 10.91 7.32945C11.39 7.58945 11.76 7.95945 12.02 8.43945C12.28 8.91945 12.41 9.41945 12.41 9.93945C12.41 10.4595 12.28 10.9595 12.02 11.4395C11.76 11.9195 11.39 12.2895 10.91 12.5495C10.43 12.8095 9.93003 12.9395 9.41003 12.9395C8.57003 12.9395 7.86003 12.6495 7.28003 12.0695C6.70003 11.4895 6.41003 10.7795 6.41003 9.93945C6.41003 9.09945 6.70003 8.38945 7.28003 7.80945C7.86003 7.22945 8.57003 6.93945 9.41003 6.93945Z" fill="black"/>
</svg>
