<svg width="16" height="17" viewBox="0 0 16 17" fill="none" xmlns="http://www.w3.org/2000/svg">
<path d="M11.7333 11.1465C12.4089 10.2576 12.8178 9.27092 12.96 8.18647C13.1022 7.10203 12.9778 6.04425 12.5866 5.01314C12.1955 3.98203 11.5733 3.10203 10.72 2.37314C9.86665 1.64425 8.90665 1.16425 7.83998 0.933138C6.77332 0.702026 5.71554 0.746471 4.66665 1.06647C3.61776 1.38647 2.69332 1.93758 1.89332 2.7198C1.09332 3.50203 0.542204 4.41758 0.239982 5.46647C-0.0622401 6.51536 -0.0977956 7.57314 0.133315 8.6398C0.364427 9.70647 0.844427 10.6665 1.57332 11.5198C2.3022 12.3731 3.1822 12.9954 4.21332 13.3865C5.24443 13.7776 6.3022 13.902 7.38665 13.7598C8.47109 13.6176 9.45776 13.2087 10.3466 12.5331L14.2933 16.5331C14.4711 16.7109 14.7022 16.7998 14.9866 16.7998C15.2711 16.7998 15.5111 16.702 15.7066 16.5065C15.9022 16.3109 16 16.0709 16 15.7865C16 15.502 15.9111 15.2709 15.7333 15.0931L11.7333 11.1465ZM12 7.30647C12 8.30203 11.7511 9.21758 11.2533 10.0531C10.7555 10.8887 10.0889 11.5554 9.25332 12.0531C8.41776 12.5509 7.5022 12.7998 6.50665 12.7998C5.51109 12.7998 4.58665 12.5509 3.73332 12.0531C2.87998 11.5554 2.21332 10.8887 1.73332 10.0531C1.25332 9.21758 1.01332 8.30203 1.01332 7.30647C1.01332 6.31092 1.25332 5.38647 1.73332 4.53314C2.21332 3.6798 2.87998 3.01314 3.73332 2.53314C4.58665 2.05314 5.51109 1.81314 6.50665 1.81314C7.5022 1.81314 8.41776 2.05314 9.25332 2.53314C10.0889 3.01314 10.7555 3.6798 11.2533 4.53314C11.7511 5.38647 12 6.31092 12 7.30647Z" fill="#212529"/>
</svg>
