<svg width="13" height="13" viewBox="0 0 13 13" fill="none" xmlns="http://www.w3.org/2000/svg">
<path d="M5.99994 6.97979C6.81772 6.97979 7.51994 6.68646 8.10661 6.09979C8.69328 5.51312 8.98661 4.80201 8.98661 3.96646C8.98661 3.1309 8.69328 2.42868 8.10661 1.85979C7.51994 1.2909 6.81772 0.997569 5.99994 0.979792C5.18217 0.962013 4.47994 1.24646 3.89328 1.83313C3.30661 2.41979 3.01328 3.1309 3.01328 3.96646C3.01328 4.80201 3.30661 5.51312 3.89328 6.09979C4.47994 6.68646 5.18217 6.97979 5.99994 6.97979ZM8.02661 3.99312C8.02661 4.52646 7.83106 4.98868 7.43994 5.37979C7.04883 5.7709 6.56883 5.96646 5.99994 5.96646C5.43106 5.96646 4.95106 5.7709 4.55994 5.37979C4.16883 4.98868 3.98217 4.51757 3.99994 3.96646C4.01772 3.41535 4.21328 2.94424 4.58661 2.55312C4.95994 2.16201 5.43106 1.96646 5.99994 1.96646C6.56883 1.96646 7.04883 2.16201 7.43994 2.55312C7.83106 2.94424 8.02661 3.42424 8.02661 3.99312ZM12.0266 11.9931C12.0266 12.2776 11.9466 12.4909 11.7866 12.6331C11.6266 12.7753 11.4577 12.882 11.2799 12.9531H11.0133H0.986611H0.719945C0.542167 12.882 0.382167 12.7753 0.239945 12.6331C0.0977224 12.4909 0.0266113 12.2776 0.0266113 11.9931C0.0266113 11.5309 0.168834 11.0331 0.453278 10.4998C0.844389 9.78868 1.43106 9.21979 2.21328 8.79312C3.20883 8.25979 4.47106 7.99312 5.99994 7.99312C7.52883 7.99312 8.79106 8.25979 9.78661 8.79312C10.5688 9.21979 11.1555 9.78868 11.5466 10.4998C11.8666 11.0331 12.0266 11.5309 12.0266 11.9931ZM11.0133 11.9931C11.0133 11.7798 10.9599 11.5487 10.8533 11.2998C10.6755 10.9442 10.4444 10.6065 10.1599 10.2865C9.76883 9.9309 9.28883 9.62868 8.71994 9.37979C7.93772 9.09535 7.03106 8.96201 5.99994 8.97979C4.96883 8.99757 4.06217 9.1309 3.27994 9.37979C2.71106 9.62868 2.23106 9.9309 1.83994 10.2865C1.5555 10.6065 1.32439 10.9442 1.14661 11.2998C1.03994 11.5487 0.986611 11.7798 0.986611 11.9931H11.0133Z" fill="black"/>
</svg>
