<svg width="33" height="35" viewBox="0 0 33 35" fill="none" xmlns="http://www.w3.org/2000/svg">
<g id="Icon ">
<path id="Oval" opacity="0.15" fill-rule="evenodd" clip-rule="evenodd" d="M16.387 33.2601C25.2061 33.2601 32.3554 26.1249 32.3554 17.3231C32.3554 8.52135 25.2061 1.38611 16.387 1.38611C7.56788 1.38611 0.418579 8.52135 0.418579 17.3231C0.418579 26.1249 7.56788 33.2601 16.387 33.2601Z" fill="#36B37E"/>
<path id="Icon" d="M14.2558 22.4021L9.91545 18.0963C9.79416 17.9752 9.73352 17.8196 9.73352 17.6294C9.73352 17.4391 9.79416 17.2835 9.91545 17.1624L10.8771 16.2286C10.9984 16.0903 11.15 16.0211 11.3319 16.0211C11.5138 16.0211 11.6741 16.0903 11.8127 16.2286L14.7236 19.1338L20.9613 12.9084C21.0999 12.7701 21.2602 12.7009 21.4421 12.7009C21.624 12.7009 21.7757 12.7701 21.8969 12.9084L22.8586 13.8422C22.9799 13.9633 23.0405 14.1189 23.0405 14.3092C23.0405 14.4994 22.9799 14.655 22.8586 14.7761L15.1915 22.4021C15.0702 22.5405 14.9142 22.6097 14.7236 22.6097C14.533 22.6097 14.3771 22.5405 14.2558 22.4021Z" fill="#36B37E"/>
</g>
</svg>
